<svg id="Layer_1" data-name="Layer 1" xmlns="http://www.w3.org/2000/svg" xmlns:xlink="http://www.w3.org/1999/xlink" viewBox="0 0 256 256"><defs><style>.cls-1{fill:url(#linear-gradient);}.cls-2{fill:url(#linear-gradient-2);}.cls-3{fill:url(#linear-gradient-3);}.cls-4{fill:url(#linear-gradient-4);}.cls-12,.cls-5,.cls-6{stroke:#79629d;stroke-linecap:round;stroke-miterlimit:10;stroke-width:10px;}.cls-5{fill:url(#linear-gradient-5);}.cls-6{fill:url(#linear-gradient-6);}.cls-7{fill:url(#linear-gradient-7);}.cls-8{fill:url(#linear-gradient-8);}.cls-9{fill:url(#linear-gradient-9);}.cls-10{fill:url(#linear-gradient-10);}.cls-11{fill:url(#linear-gradient-11);}.cls-12{fill:url(#linear-gradient-12);}</style><linearGradient id="linear-gradient" x1="196.95" y1="252.71" x2="62.1" y2="-4.67" gradientUnits="userSpaceOnUse"><stop offset="0.27" stop-color="#672dce"/><stop offset="0.45" stop-color="#5d29bb"/><stop offset="0.7" stop-color="#5224a4"/><stop offset="0.87" stop-color="#4e229c"/></linearGradient><linearGradient id="linear-gradient-2" x1="36.53" y1="-98.01" x2="72.57" y2="0.55" gradientTransform="matrix(0.98, -0.21, 0.21, 0.98, 15.01, 96.06)" gradientUnits="userSpaceOnUse"><stop offset="0.19" stop-color="#672dce"/><stop offset="0.3" stop-color="#6e31db"/><stop offset="0.53" stop-color="#7a38ef"/><stop offset="0.77" stop-color="#813dfb"/><stop offset="1" stop-color="#833eff"/></linearGradient><linearGradient id="linear-gradient-3" x1="114.05" y1="277.28" x2="111.4" y2="240.96" gradientTransform="matrix(0, 1.24, -1.14, 0, 511.36, 37.39)" gradientUnits="userSpaceOnUse"><stop offset="0.22" stop-color="#965bff"/><stop offset="0.8" stop-color="#833eff"/></linearGradient><linearGradient id="linear-gradient-4" x1="77.75" y1="239.95" x2="85.59" y2="223.52" gradientTransform="translate(78.8 -102.04) scale(1.24 1.14)" xlink:href="#linear-gradient-3"/><linearGradient id="linear-gradient-5" x1="132.83" y1="183.26" x2="191.93" y2="183.26" gradientUnits="userSpaceOnUse"><stop offset="0" stop-color="#eae1ff"/><stop offset="0.07" stop-color="#dcd1f3"/><stop offset="0.31" stop-color="#b2a2ce"/><stop offset="0.52" stop-color="#937fb3"/><stop offset="0.69" stop-color="#806aa3"/><stop offset="0.8" stop-color="#79629d"/></linearGradient><linearGradient id="linear-gradient-6" x1="121.31" y1="175" x2="133.64" y2="175" xlink:href="#linear-gradient-5"/><linearGradient id="linear-gradient-7" x1="-17.24" y1="168.91" x2="86.24" y2="130.6" gradientUnits="userSpaceOnUse"><stop offset="0.09" stop-color="#ede6ff"/><stop offset="0.26" stop-color="#e6defb"/><stop offset="0.54" stop-color="#d4c8ef"/><stop offset="0.87" stop-color="#b6a4dc"/><stop offset="0.89" stop-color="#b4a2db"/></linearGradient><linearGradient id="linear-gradient-8" x1="-7.64" y1="155.19" x2="151.55" y2="101.26" gradientUnits="userSpaceOnUse"><stop offset="0.24" stop-color="#ede6ff"/><stop offset="0.38" stop-color="#e6defb"/><stop offset="0.6" stop-color="#d4c8ef"/><stop offset="0.88" stop-color="#b6a4dc"/><stop offset="0.89" stop-color="#b4a2db"/></linearGradient><linearGradient id="linear-gradient-9" x1="76.27" y1="120.8" x2="221.26" y2="67.42" gradientUnits="userSpaceOnUse"><stop offset="0.12" stop-color="#ede6ff"/><stop offset="0.34" stop-color="#e0d7f7"/><stop offset="0.77" stop-color="#bfafe2"/><stop offset="0.89" stop-color="#b4a2db"/></linearGradient><linearGradient id="linear-gradient-10" x1="167.44" y1="88.77" x2="265.82" y2="47.24" gradientTransform="translate(49.77 -88.4) rotate(25.41)" gradientUnits="userSpaceOnUse"><stop offset="0.26" stop-color="#ede6ff"/><stop offset="0.36" stop-color="#ddd3f5"/><stop offset="0.54" stop-color="#c7b8e7"/><stop offset="0.71" stop-color="#b9a8de"/><stop offset="0.83" stop-color="#b4a2db"/></linearGradient><linearGradient id="linear-gradient-11" x1="238.4" y1="28.46" x2="205.23" y2="100.15" gradientTransform="translate(49.77 -88.4) rotate(25.41)" gradientUnits="userSpaceOnUse"><stop offset="0" stop-color="#965bff"/><stop offset="0.5" stop-color="#7c44e8"/><stop offset="1" stop-color="#6530d5"/></linearGradient><linearGradient id="linear-gradient-12" x1="80.43" y1="194.73" x2="109.45" y2="194.73" xlink:href="#linear-gradient-5"/></defs><circle class="cls-1" cx="128" cy="121.11" r="114.05"/><path class="cls-2" d="M71.67,26.14l11.84-.66A4.82,4.82,0,0,1,87.76,33L81.08,42.8a7.32,7.32,0,0,0-.78,6.8l4.28,11.06A4.81,4.81,0,0,1,78.74,67L67.35,63.7a7.36,7.36,0,0,0-6.71,1.36l-9.19,7.49A4.82,4.82,0,0,1,43.59,69L43.24,57.1a7.35,7.35,0,0,0-3.36-6l-10-6.43a4.82,4.82,0,0,1,1-8.58l11.16-4a7.34,7.34,0,0,0,4.63-5l3-11.46a4.82,4.82,0,0,1,8.47-1.72l7.25,9.38A7.37,7.37,0,0,0,71.67,26.14Z"/><ellipse class="cls-3" cx="217.51" cy="177.15" rx="11.73" ry="16.76" transform="translate(9.35 365.2) rotate(-81.26)"/><ellipse class="cls-4" cx="179.64" cy="162.6" rx="8.38" ry="5.87" transform="translate(-22.68 29.27) rotate(-8.76)"/><line class="cls-5" x1="132.83" y1="133.19" x2="191.93" y2="233.33"/><line class="cls-6" x1="121.31" y1="133.19" x2="133.64" y2="216.8"/><path class="cls-7" d="M70.9,112.7,8.72,137.91c-6.3,3-7.35,14-2.33,24.52s14.18,16.69,20.48,13.69l56.54-22.84Z"/><path class="cls-8" d="M149.17,137l-29.7-63.32L67.27,94.71c-10.44,5-12.17,23.15-3.86,40.64S86.91,163,97.35,158C98.24,157.61,149.17,137,149.17,137Z"/><path class="cls-9" d="M240.77,107.91,202.53,23.73,122.82,56.06l-.23.09-.07,0h0c-.35.14-.71.28-1,.45-13.76,6.53-16,30.51-5.09,53.56C127,132.6,146.26,145.87,160,140.57h0Z"/><ellipse class="cls-10" cx="220.95" cy="66.18" rx="27.58" ry="46.19" transform="translate(-7.03 101.2) rotate(-25.41)"/><ellipse class="cls-11" cx="220.95" cy="66.18" rx="21.32" ry="35.71" transform="translate(-7.03 101.2) rotate(-25.41)"/><line class="cls-12" x1="109.45" y1="138.43" x2="80.43" y2="251.03"/></svg>