<svg width="30" height="21" viewBox="0 0 30 21" fill="current" xmlns="http://www.w3.org/2000/svg">
<path d="M21.75 10.5C23.82 10.5 25.485 8.82 25.485 6.75C25.485 4.68 23.82 3 21.75 3C20.7554 3 19.8016 3.39509 19.0983 4.09835C18.3951 4.80161 18 5.75544 18 6.75C18 7.74456 18.3951 8.69839 19.0983 9.40165C19.8016 10.1049 20.7554 10.5 21.75 10.5V10.5ZM10.5 9C12.99 9 14.985 6.99 14.985 4.5C14.985 2.01 12.99 0 10.5 0C8.01 0 6 2.01 6 4.5C6 6.99 8.01 9 10.5 9ZM21.75 13.5C19.005 13.5 13.5 14.88 13.5 17.625V19.5C13.5 20.325 14.175 21 15 21H28.5C29.325 21 30 20.325 30 19.5V17.625C30 14.88 24.495 13.5 21.75 13.5ZM10.5 12C7.005 12 0 13.755 0 17.25V19.5C0 20.325 0.675 21 1.5 21H10.5V17.625C10.5 16.35 10.995 14.115 14.055 12.42C12.75 12.15 11.49 12 10.5 12Z" fill="current"/>
</svg>
