<svg width="29" height="29" viewBox="0 0 29 29" fill="current" xmlns="http://www.w3.org/2000/svg">
<path d="M10.8 0V12.6H14.4V9C14.4 6.264 17.01 3.6 19.8 3.6V5.148C20.79 4.212 22.068 3.6 23.4 3.6V9H25.2C27.18 9 28.8 10.62 28.8 12.6C28.8 14.58 27.18 16.2 25.2 16.2H23.4V27C23.4 27.99 22.59 28.8 21.6 28.8C20.61 28.8 19.8 27.99 19.8 27V23.076C19.242 23.274 18.63 23.4 18 23.4V27C18 27.99 17.19 28.8 16.2 28.8C15.21 28.8 14.4 27.99 14.4 27V23.4H10.8V27C10.8 27.99 9.99 28.8 9 28.8C8.01 28.8 7.2 27.99 7.2 27V23.4C6.57 23.4 5.958 23.274 5.4 23.076V27C5.4 27.99 4.59 28.8 3.6 28.8C2.61 28.8 1.8 27.99 1.8 27V19.8H0V18C0 15.012 2.412 12.6 5.4 12.6H9V0H10.8ZM19.8 12.6C20.79 12.6 21.6 11.79 21.6 10.8C21.6 9.81 20.79 9 19.8 9C18.81 9 18 9.81 18 10.8C18 11.79 18.81 12.6 19.8 12.6Z" fill="current"/>
</svg>
