<svg id="Layer_1" data-name="Layer 1" xmlns="http://www.w3.org/2000/svg" xmlns:xlink="http://www.w3.org/1999/xlink" viewBox="0 0 250 250"><defs><style>.cls-1,.cls-24,.cls-5,.cls-6,.cls-7{fill:none;}.cls-2{fill:url(#linear-gradient);}.cls-3{fill:url(#linear-gradient-2);}.cls-4{clip-path:url(#clip-path);}.cls-5,.cls-6,.cls-7{stroke-miterlimit:10;stroke-width:0.5px;}.cls-5{stroke:url(#linear-gradient-3);}.cls-6{stroke:url(#linear-gradient-4);}.cls-7{stroke:url(#linear-gradient-5);}.cls-8{fill:url(#linear-gradient-6);}.cls-9{clip-path:url(#clip-path-2);}.cls-10{fill:url(#linear-gradient-7);}.cls-11{fill:url(#linear-gradient-8);}.cls-12{fill:url(#linear-gradient-9);}.cls-13{fill:url(#linear-gradient-10);}.cls-14{fill:url(#linear-gradient-11);}.cls-15{fill:url(#linear-gradient-12);}.cls-16{fill:url(#linear-gradient-13);}.cls-17{fill:url(#linear-gradient-14);}.cls-18{fill:url(#linear-gradient-15);}.cls-19{fill:url(#linear-gradient-16);}.cls-20{fill:url(#linear-gradient-17);}.cls-21{fill:url(#linear-gradient-18);}.cls-22{fill:url(#linear-gradient-19);}.cls-23{fill:url(#linear-gradient-20);}.cls-24{stroke:#360d6b;stroke-linecap:round;stroke-linejoin:round;}</style><linearGradient id="linear-gradient" x1="124.88" y1="295.55" x2="124.88" y2="-148.58" gradientUnits="userSpaceOnUse"><stop offset="0.07" stop-color="#8039ff"/><stop offset="0.26" stop-color="#823cff"/><stop offset="0.43" stop-color="#8a47ff"/><stop offset="0.58" stop-color="#9659ff"/><stop offset="0.73" stop-color="#a773ff"/><stop offset="0.88" stop-color="#bd93ff"/><stop offset="1" stop-color="#d3b3ff"/></linearGradient><linearGradient id="linear-gradient-2" x1="124.88" y1="-16.84" x2="124.88" y2="302.25" gradientUnits="userSpaceOnUse"><stop offset="0" stop-color="#8039ff"/><stop offset="0.13" stop-color="#7030df"/><stop offset="0.32" stop-color="#5b23b6"/><stop offset="0.51" stop-color="#4b1a95"/><stop offset="0.69" stop-color="#3f137e"/><stop offset="0.86" stop-color="#380e70"/><stop offset="1" stop-color="#360d6b"/></linearGradient><clipPath id="clip-path"><circle class="cls-1" cx="124.52" cy="125.74" r="107.26"/></clipPath><linearGradient id="linear-gradient-3" x1="106.69" y1="200.3" x2="182.77" y2="200.3" xlink:href="#linear-gradient"/><linearGradient id="linear-gradient-4" x1="66.47" y1="42.6" x2="152.95" y2="42.6" xlink:href="#linear-gradient"/><linearGradient id="linear-gradient-5" x1="43.9" y1="42.6" x2="175.52" y2="42.6" xlink:href="#linear-gradient"/><linearGradient id="linear-gradient-6" x1="150.06" y1="76.17" x2="54.94" y2="-5.56" gradientUnits="userSpaceOnUse"><stop offset="0.13" stop-color="#9109d8"/><stop offset="0.24" stop-color="#8823ed"/><stop offset="0.35" stop-color="#8233fa"/><stop offset="0.43" stop-color="#8039ff"/><stop offset="0.47" stop-color="#833dff"/><stop offset="0.51" stop-color="#8b4aff"/><stop offset="0.56" stop-color="#9a5fff"/><stop offset="0.6" stop-color="#ae7cff"/><stop offset="0.65" stop-color="#c7a1ff"/><stop offset="0.67" stop-color="#d3b3ff"/></linearGradient><clipPath id="clip-path-2"><path class="cls-1" d="M247.34,159.14c0,31.53-28.8,26.48-50.46,46.11A107.27,107.27,0,0,1,49,201.59c-19.41-19.41-50.38-14.36-50.38-44C-1.34,98.36,9.9-6.82,124.88-1.72,247.24,3.72,247.34,99.9,247.34,159.14Z"/></clipPath><linearGradient id="linear-gradient-7" x1="169.37" y1="381.84" x2="-35.73" y2="-144.9" gradientUnits="userSpaceOnUse"><stop offset="0.15" stop-color="#6530d5"/><stop offset="0.22" stop-color="#8b64e0"/><stop offset="0.29" stop-color="#b097eb"/><stop offset="0.36" stop-color="#cebff4"/><stop offset="0.43" stop-color="#e3dbfa"/><stop offset="0.48" stop-color="#efedfe"/><stop offset="0.52" stop-color="#f4f3ff"/></linearGradient><linearGradient id="linear-gradient-8" x1="208.17" y1="339.54" x2="28.28" y2="-122.47" xlink:href="#linear-gradient-7"/><linearGradient id="linear-gradient-9" x1="222.88" y1="377.3" x2="0.58" y2="-193.62" xlink:href="#linear-gradient-7"/><linearGradient id="linear-gradient-10" x1="169.03" y1="226.45" x2="115.18" y2="168.49" gradientUnits="userSpaceOnUse"><stop offset="0.13" stop-color="#9109d8"/><stop offset="0.24" stop-color="#8823ed"/><stop offset="0.35" stop-color="#8233fa"/><stop offset="0.43" stop-color="#8039ff"/><stop offset="0.5" stop-color="#8946ff"/><stop offset="0.63" stop-color="#a16aff"/><stop offset="0.81" stop-color="#c8a3ff"/><stop offset="0.85" stop-color="#d3b3ff"/></linearGradient><linearGradient id="linear-gradient-11" x1="196.3" y1="80.69" x2="149.94" y2="46.83" gradientUnits="userSpaceOnUse"><stop offset="0.13" stop-color="#9109d8"/><stop offset="0.24" stop-color="#8823ed"/><stop offset="0.35" stop-color="#8233fa"/><stop offset="0.43" stop-color="#8039ff"/><stop offset="0.56" stop-color="#985cff"/><stop offset="0.83" stop-color="#d3b3ff"/></linearGradient><linearGradient id="linear-gradient-12" x1="193.77" y1="214.9" x2="60.78" y2="99.63" xlink:href="#linear-gradient"/><linearGradient id="linear-gradient-13" x1="187.89" y1="133.95" x2="48.02" y2="60.88" gradientUnits="userSpaceOnUse"><stop offset="0" stop-color="#9109d8"/><stop offset="0.02" stop-color="#900bda"/><stop offset="0.66" stop-color="#8039ff"/><stop offset="0.71" stop-color="#8a48ff"/><stop offset="0.82" stop-color="#a46eff"/><stop offset="0.96" stop-color="#ceacff"/><stop offset="0.97" stop-color="#d3b3ff"/></linearGradient><linearGradient id="linear-gradient-14" x1="60.08" y1="107.2" x2="211.01" y2="152.47" gradientUnits="userSpaceOnUse"><stop offset="0" stop-color="#9109d8"/><stop offset="0.12" stop-color="#8414d7"/><stop offset="0.35" stop-color="#7324d6"/><stop offset="0.59" stop-color="#682dd5"/><stop offset="0.88" stop-color="#6530d5"/></linearGradient><linearGradient id="linear-gradient-15" x1="47.24" y1="93.88" x2="185.1" y2="150.2" gradientUnits="userSpaceOnUse"><stop offset="0" stop-color="#6530d5"/><stop offset="0.06" stop-color="#7c4fdc"/><stop offset="0.15" stop-color="#9b7ae5"/><stop offset="0.25" stop-color="#b79fed"/><stop offset="0.35" stop-color="#cdbef4"/><stop offset="0.45" stop-color="#ded5f9"/><stop offset="0.56" stop-color="#eae6fc"/><stop offset="0.68" stop-color="#f2f0fe"/><stop offset="0.84" stop-color="#f4f3ff"/></linearGradient><linearGradient id="linear-gradient-16" x1="67.06" y1="142.47" x2="115.48" y2="172.65" xlink:href="#linear-gradient-14"/><linearGradient id="linear-gradient-17" x1="79.43" y1="93.67" x2="133.86" y2="110.8" xlink:href="#linear-gradient-14"/><linearGradient id="linear-gradient-18" x1="160.67" y1="138.81" x2="185.56" y2="171.73" gradientUnits="userSpaceOnUse"><stop offset="0" stop-color="#9109d8"/><stop offset="0.14" stop-color="#8414d7"/><stop offset="0.4" stop-color="#7324d6"/><stop offset="0.67" stop-color="#682dd5"/><stop offset="1" stop-color="#6530d5"/></linearGradient><linearGradient id="linear-gradient-19" x1="145.47" y1="85.49" x2="169.41" y2="117.15" xlink:href="#linear-gradient"/><linearGradient id="linear-gradient-20" x1="136.66" y1="85.49" x2="160.6" y2="117.15" xlink:href="#linear-gradient"/></defs><path class="cls-2" d="M124.88,18.47A107.27,107.27,0,1,1,17.62,125.74,107.27,107.27,0,0,1,124.88,18.47m0-12a119.27,119.27,0,0,0-84.33,203.6A119.26,119.26,0,0,0,209.21,41.41,118.45,118.45,0,0,0,124.88,6.47Z"/><circle class="cls-3" cx="124.88" cy="125.74" r="107.26"/><g class="cls-4"><circle class="cls-5" cx="144.73" cy="200.3" r="37.79"/><circle class="cls-6" cx="109.71" cy="42.6" r="42.99"/><circle class="cls-7" cx="109.71" cy="42.6" r="65.56"/></g><circle class="cls-8" cx="109.71" cy="41.5" r="24.45"/><g class="cls-9"><path class="cls-10" d="M66.13,189.09a.49.49,0,0,1,0,.12h2.1A4.87,4.87,0,0,1,73,193.07L82.74,239l36.58-47.31a6.29,6.29,0,0,1,5-2.44h1a.49.49,0,0,0,0-.12Z"/><path class="cls-11" d="M222.15,176.6V74.67A12.77,12.77,0,0,0,209.38,61.9h-169A12.77,12.77,0,0,0,27.61,74.67V176.6a12.76,12.76,0,0,0,11.23,12.66H210.92A12.75,12.75,0,0,0,222.15,176.6Z"/><path class="cls-12" d="M223.89,176.6a475.79,475.79,0,0,0,0-101.93c-.86-7-7.47-13.15-14.52-13.55a1609.27,1609.27,0,0,0-169,0c-7.05.4-13.66,6.5-14.52,13.55a475.79,475.79,0,0,0,0,101.93c.8,6.53,6.54,12.22,13,13.36a1614,1614,0,0,0,172.08,0C217.35,188.82,223.09,183.13,223.89,176.6Z"/></g><circle class="cls-13" cx="144.73" cy="200.3" r="18.01"/><circle class="cls-14" cx="176.04" cy="65.89" r="13.07"/><rect class="cls-15" x="60.11" y="142.52" width="128.17" height="24.17" rx="2.14"/><rect class="cls-16" x="77.21" y="88.59" width="93.97" height="24.17" rx="2.32"/><path class="cls-17" d="M77.18,112.76H180.27a2,2,0,0,1,2,2v25.77a2,2,0,0,1-2,2H77.18a8.64,8.64,0,0,1-8.64-8.64V121.4A8.64,8.64,0,0,1,77.18,112.76Z"/><path class="cls-18" d="M78.25,117H182.31a0,0,0,0,1,0,0v21.26a0,0,0,0,1,0,0H78.25a4.14,4.14,0,0,1-4.14-4.14v-13A4.14,4.14,0,0,1,78.25,117Z"/><rect class="cls-19" x="68.54" y="147.81" width="35.97" height="13.59"/><rect class="cls-20" x="83.72" y="93.88" width="35.97" height="13.59"/><rect class="cls-21" x="170.47" y="142.52" width="4.3" height="24.17"/><rect class="cls-22" x="155.49" y="88.59" width="2.92" height="24.17"/><rect class="cls-23" x="146.68" y="88.59" width="2.92" height="24.17"/><line class="cls-24" x1="182.31" y1="124.66" x2="125.4" y2="124.66"/><line class="cls-24" x1="149.29" y1="131.3" x2="162.31" y2="131.3"/><line class="cls-24" x1="107.95" y1="131.3" x2="143.58" y2="131.3"/></svg>