<svg id="Layer_1" data-name="Layer 1" xmlns="http://www.w3.org/2000/svg" xmlns:xlink="http://www.w3.org/1999/xlink" viewBox="0 0 250 250"><defs><style>.cls-1,.cls-24,.cls-26,.cls-5,.cls-6,.cls-7{fill:none;}.cls-2{fill:url(#linear-gradient);}.cls-3{fill:url(#linear-gradient-2);}.cls-4{clip-path:url(#clip-path);}.cls-26,.cls-5,.cls-6,.cls-7{stroke-miterlimit:10;stroke-width:0.5px;}.cls-5{stroke:url(#linear-gradient-3);}.cls-6{stroke:url(#linear-gradient-4);}.cls-7{stroke:url(#linear-gradient-5);}.cls-8{fill:url(#linear-gradient-6);}.cls-9{clip-path:url(#clip-path-2);}.cls-10{fill:url(#linear-gradient-7);}.cls-11{fill:url(#linear-gradient-8);}.cls-12{fill:url(#linear-gradient-9);}.cls-13{fill:url(#linear-gradient-10);}.cls-14{fill:url(#linear-gradient-11);}.cls-15{fill:url(#linear-gradient-12);}.cls-16{fill:url(#linear-gradient-13);}.cls-17{fill:url(#linear-gradient-14);}.cls-18{fill:url(#linear-gradient-15);}.cls-19{fill:url(#linear-gradient-16);}.cls-20{fill:url(#linear-gradient-17);}.cls-21{fill:url(#linear-gradient-18);}.cls-22{fill:url(#linear-gradient-19);}.cls-23{fill:url(#linear-gradient-20);}.cls-24{stroke:#360d6b;stroke-linecap:round;stroke-linejoin:round;}.cls-25{clip-path:url(#clip-path-3);}.cls-26{stroke:url(#linear-gradient-21);}</style><linearGradient id="linear-gradient" x1="126.88" y1="299" x2="126.88" y2="-145.13" gradientUnits="userSpaceOnUse"><stop offset="0.07" stop-color="#00c7b0"/><stop offset="0.21" stop-color="#03c8ae"/><stop offset="0.33" stop-color="#0ecaa6"/><stop offset="0.44" stop-color="#20ce9a"/><stop offset="0.55" stop-color="#3ad388"/><stop offset="0.66" stop-color="#5ada71"/><stop offset="0.76" stop-color="#83e256"/><stop offset="0.87" stop-color="#b2ec35"/><stop offset="0.96" stop-color="#e8f710"/><stop offset="1" stop-color="#fdfb01"/></linearGradient><linearGradient id="linear-gradient-2" x1="126.88" y1="-13.39" x2="126.88" y2="305.7" gradientUnits="userSpaceOnUse"><stop offset="0" stop-color="#00c7b0"/><stop offset="0.14" stop-color="#17a4b8"/><stop offset="0.33" stop-color="#337bc3"/><stop offset="0.51" stop-color="#495acb"/><stop offset="0.69" stop-color="#5843d0"/><stop offset="0.86" stop-color="#6235d4"/><stop offset="1" stop-color="#6530d5"/></linearGradient><clipPath id="clip-path"><circle class="cls-1" cx="126.52" cy="129.18" r="107.26"/></clipPath><linearGradient id="linear-gradient-3" x1="160.54" y1="239.2" x2="132.93" y2="168.29" xlink:href="#linear-gradient"/><linearGradient id="linear-gradient-4" x1="127.4" y1="86.35" x2="96.02" y2="5.74" xlink:href="#linear-gradient"/><linearGradient id="linear-gradient-5" x1="135.6" y1="107.39" x2="87.83" y2="-15.3" xlink:href="#linear-gradient"/><linearGradient id="linear-gradient-6" x1="152.06" y1="79.62" x2="56.94" y2="-2.11" gradientUnits="userSpaceOnUse"><stop offset="0" stop-color="#b408da"/><stop offset="0.12" stop-color="#8936d0"/><stop offset="0.41" stop-color="#279eb9"/><stop offset="0.54" stop-color="#00c7b0"/><stop offset="0.57" stop-color="#1acc9e"/><stop offset="0.68" stop-color="#69dd67"/><stop offset="0.79" stop-color="#a9ea3b"/><stop offset="0.87" stop-color="#d6f31c"/><stop offset="0.94" stop-color="#f3f908"/><stop offset="0.97" stop-color="#fdfb01"/></linearGradient><clipPath id="clip-path-2"><path class="cls-1" d="M249.34,162.58c0,31.53-28.8,26.49-50.46,46.11A107.26,107.26,0,0,1,51,205C31.63,185.63.66,190.67.66,161.05.66,101.81,11.9-3.37,126.88,1.73,249.24,7.17,249.34,103.34,249.34,162.58Z"/></clipPath><linearGradient id="linear-gradient-7" x1="171.37" y1="385.29" x2="-33.73" y2="-141.45" gradientUnits="userSpaceOnUse"><stop offset="0.15" stop-color="#6530d5"/><stop offset="0.22" stop-color="#8b64e0"/><stop offset="0.29" stop-color="#b097eb"/><stop offset="0.36" stop-color="#cebff4"/><stop offset="0.43" stop-color="#e3dbfa"/><stop offset="0.48" stop-color="#efedfe"/><stop offset="0.52" stop-color="#f4f3ff"/></linearGradient><linearGradient id="linear-gradient-8" x1="210.17" y1="342.98" x2="30.28" y2="-119.02" xlink:href="#linear-gradient-7"/><linearGradient id="linear-gradient-9" x1="224.88" y1="380.75" x2="2.58" y2="-190.17" xlink:href="#linear-gradient-7"/><linearGradient id="linear-gradient-10" x1="171.03" y1="229.9" x2="117.18" y2="171.93" gradientUnits="userSpaceOnUse"><stop offset="0" stop-color="#b408da"/><stop offset="0.03" stop-color="#aa13d8"/><stop offset="0.26" stop-color="#625fc7"/><stop offset="0.45" stop-color="#2d97ba"/><stop offset="0.58" stop-color="#0cbab3"/><stop offset="0.66" stop-color="#00c7b0"/><stop offset="0.69" stop-color="#0fcaa6"/><stop offset="0.75" stop-color="#35d28b"/><stop offset="0.82" stop-color="#74df60"/><stop offset="0.92" stop-color="#c9f025"/><stop offset="0.97" stop-color="#fdfb01"/></linearGradient><linearGradient id="linear-gradient-11" x1="198.3" y1="84.14" x2="151.94" y2="50.27" gradientUnits="userSpaceOnUse"><stop offset="0" stop-color="#b408da"/><stop offset="0.02" stop-color="#ab11d8"/><stop offset="0.12" stop-color="#7848cc"/><stop offset="0.21" stop-color="#4d75c2"/><stop offset="0.31" stop-color="#2b99ba"/><stop offset="0.4" stop-color="#14b2b5"/><stop offset="0.47" stop-color="#05c2b1"/><stop offset="0.54" stop-color="#00c7b0"/><stop offset="0.58" stop-color="#0fcaa6"/><stop offset="0.66" stop-color="#35d28b"/><stop offset="0.77" stop-color="#74df60"/><stop offset="0.9" stop-color="#c9f025"/><stop offset="0.97" stop-color="#fdfb01"/></linearGradient><linearGradient id="linear-gradient-12" x1="195.77" y1="218.35" x2="62.78" y2="103.08" xlink:href="#linear-gradient"/><linearGradient id="linear-gradient-13" x1="189.89" y1="137.4" x2="50.02" y2="64.32" gradientUnits="userSpaceOnUse"><stop offset="0" stop-color="#b408da"/><stop offset="0.09" stop-color="#9924d4"/><stop offset="0.49" stop-color="#2c99ba"/><stop offset="0.66" stop-color="#00c7b0"/><stop offset="0.69" stop-color="#0fcaa6"/><stop offset="0.75" stop-color="#35d28b"/><stop offset="0.82" stop-color="#74df60"/><stop offset="0.92" stop-color="#c9f025"/><stop offset="0.97" stop-color="#fdfb01"/></linearGradient><linearGradient id="linear-gradient-14" x1="62.08" y1="110.65" x2="213.01" y2="155.91" gradientUnits="userSpaceOnUse"><stop offset="0" stop-color="#00c7b0"/><stop offset="0.06" stop-color="#10afb6"/><stop offset="0.18" stop-color="#2a88bf"/><stop offset="0.31" stop-color="#3f68c7"/><stop offset="0.43" stop-color="#504fcd"/><stop offset="0.57" stop-color="#5c3ed2"/><stop offset="0.71" stop-color="#6333d4"/><stop offset="0.88" stop-color="#6530d5"/></linearGradient><linearGradient id="linear-gradient-15" x1="49.24" y1="97.33" x2="187.1" y2="153.65" gradientUnits="userSpaceOnUse"><stop offset="0" stop-color="#6530d5"/><stop offset="0.06" stop-color="#7c4fdc"/><stop offset="0.15" stop-color="#9b7ae5"/><stop offset="0.25" stop-color="#b79fed"/><stop offset="0.35" stop-color="#cdbef4"/><stop offset="0.45" stop-color="#ded5f9"/><stop offset="0.56" stop-color="#eae6fc"/><stop offset="0.68" stop-color="#f2f0fe"/><stop offset="0.84" stop-color="#f4f3ff"/></linearGradient><linearGradient id="linear-gradient-16" x1="69.06" y1="145.91" x2="117.48" y2="176.1" xlink:href="#linear-gradient-14"/><linearGradient id="linear-gradient-17" x1="122.48" y1="114.43" x2="72.46" y2="86.98" xlink:href="#linear-gradient"/><linearGradient id="linear-gradient-18" x1="162.67" y1="142.26" x2="187.56" y2="175.17" gradientUnits="userSpaceOnUse"><stop offset="0" stop-color="#00c7b0"/><stop offset="0.07" stop-color="#10afb6"/><stop offset="0.21" stop-color="#2a88bf"/><stop offset="0.35" stop-color="#3f68c7"/><stop offset="0.5" stop-color="#504fcd"/><stop offset="0.65" stop-color="#5c3ed2"/><stop offset="0.81" stop-color="#6333d4"/><stop offset="1" stop-color="#6530d5"/></linearGradient><linearGradient id="linear-gradient-19" x1="147.47" y1="88.93" x2="171.41" y2="120.6" xlink:href="#linear-gradient"/><linearGradient id="linear-gradient-20" x1="138.66" y1="88.93" x2="162.6" y2="120.6" xlink:href="#linear-gradient"/><clipPath id="clip-path-3"><circle class="cls-1" cx="124.52" cy="392.29" r="107.26"/></clipPath><linearGradient id="linear-gradient-21" x1="43.9" y1="309.15" x2="175.52" y2="309.15" gradientUnits="userSpaceOnUse"><stop offset="0.07" stop-color="#8039ff"/><stop offset="0.26" stop-color="#823cff"/><stop offset="0.43" stop-color="#8a47ff"/><stop offset="0.58" stop-color="#9659ff"/><stop offset="0.73" stop-color="#a773ff"/><stop offset="0.88" stop-color="#bd93ff"/><stop offset="1" stop-color="#d3b3ff"/></linearGradient></defs><path class="cls-2" d="M126.88,21.92A107.27,107.27,0,1,1,19.62,129.18,107.26,107.26,0,0,1,126.88,21.92m0-12a119.27,119.27,0,0,0-84.33,203.6A119.26,119.26,0,0,0,211.21,44.85,118.48,118.48,0,0,0,126.88,9.92Z"/><circle class="cls-3" cx="126.88" cy="129.18" r="107.26"/><g class="cls-4"><circle class="cls-5" cx="146.73" cy="203.74" r="37.79"/><circle class="cls-6" cx="111.71" cy="46.04" r="42.99"/><circle class="cls-7" cx="111.71" cy="46.04" r="65.56"/></g><circle class="cls-8" cx="111.71" cy="44.95" r="24.45"/><g class="cls-9"><path class="cls-10" d="M68.13,192.54a.49.49,0,0,1,0,.12h2.1A4.87,4.87,0,0,1,75,196.52l9.73,45.89,36.58-47.31a6.29,6.29,0,0,1,5-2.44h1a.49.49,0,0,0,0-.12Z"/><path class="cls-11" d="M224.15,180.05V78.11a12.76,12.76,0,0,0-12.77-12.76h-169A12.76,12.76,0,0,0,29.61,78.11V180.05a12.77,12.77,0,0,0,11.23,12.66H212.92A12.76,12.76,0,0,0,224.15,180.05Z"/><path class="cls-12" d="M225.89,180.05a475.88,475.88,0,0,0,0-101.94c-.86-7-7.47-13.14-14.52-13.54a1609.27,1609.27,0,0,0-169,0c-7.05.4-13.66,6.49-14.52,13.54a475.88,475.88,0,0,0,0,101.94c.8,6.52,6.54,12.22,13,13.35a1608.73,1608.73,0,0,0,172.08,0C219.35,192.27,225.09,186.57,225.89,180.05Z"/></g><circle class="cls-13" cx="146.73" cy="203.74" r="18.01"/><circle class="cls-14" cx="178.04" cy="69.34" r="13.07"/><rect class="cls-15" x="62.11" y="145.96" width="128.17" height="24.17" rx="2.14"/><rect class="cls-16" x="79.21" y="92.04" width="93.97" height="24.17" rx="2.32"/><path class="cls-17" d="M79.18,116.21H182.27a2,2,0,0,1,2,2V144a2,2,0,0,1-2,2H79.18a8.64,8.64,0,0,1-8.64-8.64V124.85A8.64,8.64,0,0,1,79.18,116.21Z"/><path class="cls-18" d="M80.25,120.46H184.31a0,0,0,0,1,0,0v21.26a0,0,0,0,1,0,0H80.25a4.14,4.14,0,0,1-4.14-4.14v-13A4.14,4.14,0,0,1,80.25,120.46Z"/><rect class="cls-19" x="70.54" y="151.25" width="35.97" height="13.59"/><rect class="cls-20" x="85.72" y="97.33" width="35.97" height="13.59"/><rect class="cls-21" x="172.47" y="145.96" width="4.3" height="24.17"/><rect class="cls-22" x="157.49" y="92.04" width="2.92" height="24.17"/><rect class="cls-23" x="148.68" y="92.04" width="2.92" height="24.17"/><line class="cls-24" x1="184.31" y1="128.1" x2="127.4" y2="128.1"/><line class="cls-24" x1="151.29" y1="134.74" x2="164.31" y2="134.74"/><line class="cls-24" x1="109.95" y1="134.74" x2="145.58" y2="134.74"/><g class="cls-25"><circle class="cls-26" cx="109.71" cy="309.15" r="65.56"/></g></svg>