<svg width="36" height="36" viewBox="0 0 36 36" fill="current" xmlns="http://www.w3.org/2000/svg">
<g clip-path="url(#clip0_1502_3154)">
<path fill-rule="evenodd" clip-rule="evenodd" d="M0 34.875C0 34.5766 0.118526 34.2905 0.329505 34.0795C0.540483 33.8685 0.826631 33.75 1.125 33.75H34.875C35.1734 33.75 35.4595 33.8685 35.6705 34.0795C35.8815 34.2905 36 34.5766 36 34.875C36 35.1734 35.8815 35.4595 35.6705 35.6705C35.4595 35.8815 35.1734 36 34.875 36H1.125C0.826631 36 0.540483 35.8815 0.329505 35.6705C0.118526 35.4595 0 35.1734 0 34.875ZM7.02 2.64375C7.12562 2.52026 7.25674 2.42112 7.40434 2.35315C7.55193 2.28518 7.7125 2.24999 7.875 2.25H28.125C28.2875 2.24999 28.4481 2.28518 28.5957 2.35315C28.7433 2.42112 28.8744 2.52026 28.98 2.64375L35.1878 9.8865C35.7119 10.4981 36 11.277 36 12.0825V12.375H33.75V12.0825C33.75 11.8144 33.6543 11.555 33.48 11.3512L27.6075 4.5H8.3925L2.52 11.3512C2.34573 11.555 2.24998 11.8144 2.25 12.0825V12.375H0V12.0825C2.83344e-05 11.277 0.288127 10.4981 0.81225 9.8865L7.02225 2.6415L7.02 2.64375Z" fill="current"/>
<path d="M5.34375 15.4688C7.05375 15.4688 8.4375 14.0827 8.4375 12.375H10.6875C10.6875 13.1955 11.0134 13.9824 11.5936 14.5626C12.1738 15.1428 12.9607 15.4688 13.7812 15.4688C14.6018 15.4688 15.3887 15.1428 15.9689 14.5626C16.5491 13.9824 16.875 13.1955 16.875 12.375H19.125C19.125 13.1955 19.4509 13.9824 20.0311 14.5626C20.6113 15.1428 21.3982 15.4688 22.2188 15.4688C23.0393 15.4688 23.8262 15.1428 24.4064 14.5626C24.9866 13.9824 25.3125 13.1955 25.3125 12.375H27.5625C27.5625 13.1955 27.8884 13.9824 28.4686 14.5626C29.0488 15.1428 29.8357 15.4688 30.6562 15.4688C31.4768 15.4688 32.2637 15.1428 32.8439 14.5626C33.4241 13.9824 33.75 13.1955 33.75 12.375H36C36.0001 13.4887 35.6523 14.5746 35.0051 15.4809C34.3579 16.3873 33.4437 17.0688 32.3903 17.4302C31.3368 17.7916 30.1968 17.8148 29.1295 17.4966C28.0623 17.1784 27.1211 16.5347 26.4375 15.6555C25.9383 16.2985 25.2986 16.8187 24.5674 17.1763C23.8361 17.5339 23.0328 17.7195 22.2188 17.7188C21.4047 17.7197 20.6013 17.5342 19.87 17.1766C19.1387 16.8189 18.4991 16.2986 18 15.6555C17.5009 16.2986 16.8613 16.8189 16.13 17.1766C15.3987 17.5342 14.5953 17.7197 13.7812 17.7188C12.9672 17.7197 12.1638 17.5342 11.4325 17.1766C10.7012 16.8189 10.0616 16.2986 9.5625 15.6555C8.87893 16.5347 7.93774 17.1784 6.87046 17.4966C5.80318 17.8148 4.66316 17.7916 3.60973 17.4302C2.5563 17.0688 1.6421 16.3873 0.99491 15.4809C0.347719 14.5746 -0.000122847 13.4887 3.25452e-08 12.375H2.25C2.25 14.085 3.636 15.4688 5.34375 15.4688Z" fill="current"/>
<path d="M10.6875 12.375C10.6875 12.6734 10.569 12.9595 10.358 13.1705C10.147 13.3815 9.86087 13.5 9.5625 13.5C9.26413 13.5 8.97798 13.3815 8.76701 13.1705C8.55603 12.9595 8.4375 12.6734 8.4375 12.375C8.4375 12.0766 8.55603 11.7905 8.76701 11.5795C8.97798 11.3685 9.26413 11.25 9.5625 11.25C9.86087 11.25 10.147 11.3685 10.358 11.5795C10.569 11.7905 10.6875 12.0766 10.6875 12.375ZM19.125 12.375C19.125 12.6734 19.0065 12.9595 18.7955 13.1705C18.5845 13.3815 18.2984 13.5 18 13.5C17.7016 13.5 17.4155 13.3815 17.2045 13.1705C16.9935 12.9595 16.875 12.6734 16.875 12.375C16.875 12.0766 16.9935 11.7905 17.2045 11.5795C17.4155 11.3685 17.7016 11.25 18 11.25C18.2984 11.25 18.5845 11.3685 18.7955 11.5795C19.0065 11.7905 19.125 12.0766 19.125 12.375ZM27.5625 12.375C27.5625 12.6734 27.444 12.9595 27.233 13.1705C27.022 13.3815 26.7359 13.5 26.4375 13.5C26.1391 13.5 25.853 13.3815 25.642 13.1705C25.431 12.9595 25.3125 12.6734 25.3125 12.375C25.3125 12.0766 25.431 11.7905 25.642 11.5795C25.853 11.3685 26.1391 11.25 26.4375 11.25C26.7359 11.25 27.022 11.3685 27.233 11.5795C27.444 11.7905 27.5625 12.0766 27.5625 12.375Z" fill="current"/>
<path fill-rule="evenodd" clip-rule="evenodd" d="M4.5 17.6535V15.75H2.25V16.7332C2.90475 17.199 3.672 17.5208 4.5 17.6535ZM2.25 19.3118C2.94975 19.6268 3.70575 19.8338 4.5 19.9215V33.75H2.25V19.3118ZM31.5 19.9215C32.2769 19.8367 33.036 19.6318 33.75 19.314V33.75H31.5V19.9215ZM33.75 16.7332C33.0952 17.199 32.328 17.5208 31.5 17.6535V15.75H33.75V16.7332ZM6.75 21.375C6.75 21.0766 6.86853 20.7905 7.0795 20.5795C7.29048 20.3685 7.57663 20.25 7.875 20.25H16.875C17.1734 20.25 17.4595 20.3685 17.6705 20.5795C17.8815 20.7905 18 21.0766 18 21.375V33.75H15.75V22.5H9V33.75H6.75V21.375ZM20.25 21.375C20.25 21.0766 20.3685 20.7905 20.5795 20.5795C20.7905 20.3685 21.0766 20.25 21.375 20.25H28.125C28.4234 20.25 28.7095 20.3685 28.9205 20.5795C29.1315 20.7905 29.25 21.0766 29.25 21.375V30.375C29.25 30.6734 29.1315 30.9595 28.9205 31.1705C28.7095 31.3815 28.4234 31.5 28.125 31.5H21.375C21.0766 31.5 20.7905 31.3815 20.5795 31.1705C20.3685 30.9595 20.25 30.6734 20.25 30.375V21.375ZM22.5 22.5V29.25H27V22.5H22.5Z" fill="current"/>
</g>
<defs>
<clipPath id="clip0_1502_3154">
<rect width="36" height="36" fill="current"/>
</clipPath>
</defs>
</svg>
