<svg width="24" height="24" viewBox="0 0 24 24" fill="none" xmlns="http://www.w3.org/2000/svg">
<path d="M11.4997 4C11.285 4 11.0792 4.08119 10.9275 4.22573L8.3265 6.70283H4.64727C4.20034 6.70283 3.83795 7.04792 3.83795 7.47361V10.9776L1.23704 13.4547C0.920986 13.7557 0.920986 14.2437 1.23704 14.5447L3.838 17.0218V20.5259C3.838 20.9516 4.20034 21.2966 4.64733 21.2966H8.326L10.9275 23.7743C11.0793 23.9188 11.2851 24 11.4998 24L13.0653 14L11.4997 4C11.4998 4 11.4997 4 11.4997 4Z" fill="url(#paint0_linear_1372_4389)"/>
<path d="M21.7629 13.4547L19.1615 10.9771V7.47361C19.1615 7.04792 18.7991 6.70283 18.3521 6.70283H14.6729L12.0719 4.22573C11.9202 4.08124 11.7143 4.00005 11.4997 4L11.4998 24C11.7143 23.9999 11.9203 23.9188 12.0719 23.7743L14.6734 21.2967H18.3521C18.7991 21.2967 19.1615 20.9516 19.1615 20.5259V17.0224L21.7629 14.5448C22.079 14.2438 22.079 13.7557 21.7629 13.4547Z" fill="url(#paint1_linear_1372_4389)"/>
<path d="M15.5962 11.05L19.4616 0H11.7309L7.86548 11.05H15.5962Z" fill="#7428B5"/>
<path d="M15.5962 11.05H7.86538L4 0H11.7308L15.5962 11.05Z" fill="#8C42CD"/>
<path d="M11.4997 3C11.285 3 11.0792 3.08363 10.9275 3.2325L8.3265 5.78392H4.64727C4.20034 5.78392 3.83795 6.13935 3.83795 6.57782V10.187L1.23704 12.7384C0.920986 13.0484 0.920986 13.551 1.23704 13.8611L3.838 16.4125V20.0216C3.838 20.4601 4.20034 20.8155 4.64733 20.8155H8.326L10.9275 23.3675C11.0793 23.5164 11.2851 23.6 11.4998 23.6L13.0653 13.3L11.4997 3C11.4998 3 11.4997 3 11.4997 3Z" fill="url(#paint2_linear_1372_4389)"/>
<path d="M21.7629 12.7384L19.1615 10.1864V6.57782C19.1615 6.13935 18.7991 5.78392 18.3521 5.78392H14.6729L12.0719 3.2325C11.9202 3.08368 11.7143 3.00005 11.4997 3L11.4998 23.6C11.7143 23.5999 11.9203 23.5163 12.0719 23.3675L14.6734 20.8156H18.3521C18.7991 20.8156 19.1615 20.4602 19.1615 20.0217V16.4131L21.7629 13.8611C22.079 13.5511 22.079 13.0484 21.7629 12.7384Z" fill="url(#paint3_linear_1372_4389)"/>
<g opacity="0.8">
<path d="M11.5234 7C7.92099 7 5.00098 9.79448 5.00098 13.2402C5.00098 16.6863 7.92099 19.4803 11.5234 19.4803C15.1258 19.4803 18.0454 16.6867 18.0454 13.2402C18.0454 9.79404 15.1258 7 11.5234 7Z" fill="url(#paint4_linear_1372_4389)"/>
<path opacity="0.39" d="M11.5233 7C9.61033 7 7.88962 7.78805 6.69702 9.04383C7.861 8.00849 9.42028 7.37577 11.1352 7.37577C14.7367 7.37577 17.6567 10.1689 17.6567 13.6155C17.6567 15.2321 17.0146 16.7048 15.9606 17.8131C17.2431 16.6735 18.0453 15.0473 18.0453 13.2406C18.0453 9.79404 15.1257 7 11.5233 7Z" fill="#FFD600"/>
<path opacity="0.39" d="M7.46122 16.9309C7.46122 12.904 10.3812 10.6912 13.9827 10.6912C15.4548 10.6912 16.812 11.1576 17.9026 11.9443C17.2797 9.11995 14.6597 7 11.522 7C7.92002 7 5 9.79447 5 13.2402C5 15.2796 6.02223 17.0893 7.60208 18.2281C7.51086 17.8092 7.46122 17.3758 7.46122 16.9309Z" fill="url(#paint5_linear_1372_4389)"/>
</g>
<path d="M13.8046 13.5195L14.6712 11.9059L12.8268 11.8428C12.7244 11.8396 12.6243 11.8113 12.5351 11.7602C12.4458 11.7092 12.3702 11.637 12.3145 11.5498L11.3367 10L10.3567 11.549C10.3011 11.6362 10.2254 11.7085 10.1362 11.7595C10.047 11.8105 9.94684 11.8388 9.84443 11.842L8 11.9051L8.86662 13.5188C8.91502 13.6086 8.94038 13.7094 8.94038 13.8118C8.94038 13.9141 8.91502 14.0149 8.86662 14.1047L8 15.7184L9.84443 15.7815C9.94684 15.7847 10.047 15.813 10.1362 15.864C10.2254 15.9151 10.3011 15.9873 10.3567 16.0745L11.3345 17.6243L12.3123 16.0737C12.3679 15.9865 12.4436 15.9143 12.5328 15.8633C12.6221 15.8123 12.7222 15.7839 12.8246 15.7807L14.669 15.7176L13.8024 14.104C13.7545 14.0141 13.7296 13.9136 13.73 13.8115C13.7304 13.7094 13.7561 13.609 13.8046 13.5195Z" fill="white"/>
<mask id="mask0_1372_4389" style="mask-type:alpha" maskUnits="userSpaceOnUse" x="6" y="8" width="4" height="3">
<path d="M7.63713 8C6.73299 8 6 8.67155 6 9.50041C6 10.328 6.73299 11 7.63713 11C8.54084 11 9.27383 10.328 9.27383 9.50041C9.27342 8.67155 8.54043 8 7.63713 8Z" fill="url(#paint6_radial_1372_4389)"/>
</mask>
<g mask="url(#mask0_1372_4389)">
<path d="M7.63713 8C6.73299 8 6 8.67155 6 9.50041C6 10.328 6.73299 11 7.63713 11C8.54084 11 9.27383 10.328 9.27383 9.50041C9.27342 8.67155 8.54043 8 7.63713 8Z" fill="url(#paint7_radial_1372_4389)"/>
<path opacity="0.7" d="M6.14233 11.4745C6.58188 10.9895 7.87338 9.50095 7.87338 9.50095C7.87338 9.50095 8.95242 7.50848 8.97872 7.45262C8.98581 7.4366 7.59997 9.32598 7.59997 9.32598L6.14233 11.4745Z" fill="white"/>
<path d="M7.99303 9.14359C7.59523 8.83718 7.66745 7.97628 7.66411 7.7323C7.66411 7.80212 7.66411 7.8814 7.66411 7.96601C7.66411 7.92863 7.66118 7.88838 7.66118 7.87975C7.66118 7.828 7.66118 7.77871 7.66118 7.73271C7.66077 7.80254 7.65576 7.91343 7.63906 8.04117C7.63906 8.04117 7.52218 8.90577 7.3118 9.08403C6.83761 9.49353 5.64462 9.41467 6.10212 9.42494C7.64741 9.4578 7.64741 10.9418 7.66118 11.4285C7.66118 11.364 7.66118 11.2802 7.66118 11.1837C7.66244 11.2014 7.66411 11.2157 7.66411 11.2248C7.66411 11.3041 7.66411 11.3739 7.66411 11.4289C7.69667 10.2764 7.69291 9.54734 9.04118 9.44999C9.48782 9.41549 8.45888 9.50051 7.99303 9.14359Z" fill="white"/>
</g>
<defs>
<linearGradient id="paint0_linear_1372_4389" x1="21.5" y1="14.7317" x2="7.64948" y2="23.267" gradientUnits="userSpaceOnUse">
<stop stop-color="#E08C00"/>
<stop offset="1" stop-color="#FFA800"/>
</linearGradient>
<linearGradient id="paint1_linear_1372_4389" x1="21.5" y1="14.7317" x2="7.64948" y2="23.267" gradientUnits="userSpaceOnUse">
<stop stop-color="#E08C00"/>
<stop offset="1" stop-color="#FFA800"/>
</linearGradient>
<linearGradient id="paint2_linear_1372_4389" x1="10.1875" y1="25.66" x2="11.4506" y2="2.99725" gradientUnits="userSpaceOnUse">
<stop stop-color="#FF9F13"/>
<stop offset="1" stop-color="#F7E436"/>
</linearGradient>
<linearGradient id="paint3_linear_1372_4389" x1="10.1875" y1="25.66" x2="11.4506" y2="2.99725" gradientUnits="userSpaceOnUse">
<stop stop-color="#FF9F13"/>
<stop offset="1" stop-color="#F7E436"/>
</linearGradient>
<linearGradient id="paint4_linear_1372_4389" x1="11.5232" y1="9.37901" x2="11.5232" y2="20.1593" gradientUnits="userSpaceOnUse">
<stop stop-color="#DE8402"/>
<stop offset="1" stop-color="#F7CD36"/>
</linearGradient>
<linearGradient id="paint5_linear_1372_4389" x1="11.4513" y1="7" x2="11.4513" y2="18.2281" gradientUnits="userSpaceOnUse">
<stop stop-color="#E27A00"/>
<stop offset="1" stop-color="#E9A013"/>
</linearGradient>
<radialGradient id="paint6_radial_1372_4389" cx="0" cy="0" r="1" gradientUnits="userSpaceOnUse" gradientTransform="translate(7.63675 9.49975) scale(1.5816 1.55626)">
<stop offset="0.0935" stop-color="white"/>
<stop offset="0.1705" stop-color="#F6F6F6"/>
<stop offset="0.2961" stop-color="#DEDEDE"/>
<stop offset="0.4548" stop-color="#B6B6B6"/>
<stop offset="0.6402" stop-color="#7F7F7F"/>
<stop offset="0.8457" stop-color="#393939"/>
<stop offset="1"/>
</radialGradient>
<radialGradient id="paint7_radial_1372_4389" cx="0" cy="0" r="1" gradientUnits="userSpaceOnUse" gradientTransform="translate(7.63675 9.49975) scale(1.5816 1.55626)">
<stop offset="0.0935" stop-color="white"/>
<stop offset="1" stop-color="white"/>
</radialGradient>
</defs>
</svg>
