<svg width="24" height="24" viewBox="0 0 24 24" fill="none" xmlns="http://www.w3.org/2000/svg">
<path d="M17.2395 0.640569V7.47331C17.2395 7.67359 17.1487 7.86278 16.9944 7.98363L14.7246 9.76484L12.042 11.8698C11.9314 11.9564 11.7998 12 11.6681 12C11.5365 12 11.4048 11.9564 11.2942 11.8698L8.61166 9.76484L6.34182 7.98363C6.18747 7.86278 6.09668 7.67359 6.09668 7.47331V0.640569C6.09668 0.286975 6.37401 0 6.71573 0H16.6205C16.9622 0 17.2395 0.286975 17.2395 0.640569Z" fill="#00CEFF"/>
<path opacity="0.9" d="M16.6681 0H12.0967V12C12.2182 12 12.3397 11.9564 12.4418 11.8698L14.918 9.76484L17.0133 7.98363C17.1557 7.86278 17.2395 7.67359 17.2395 7.47331V0.640569C17.2395 0.286975 16.9835 0 16.6681 0Z" fill="#2892FC"/>
<path d="M14.4703 0V9.76484L12.0399 11.8698C11.9397 11.9564 11.8204 12 11.7011 12C11.5818 12 11.4626 11.9564 11.3623 11.8698L8.93188 9.76484V0H14.4703Z" fill="#3440DB"/>
<path d="M11.399 8C6.78037 8 3.03687 11.5816 3.03687 15.9996C3.03687 20.418 6.78079 24 11.399 24C16.0168 24 19.7611 20.4176 19.7611 15.9996C19.7611 11.5816 16.0168 8 11.399 8Z" fill="url(#paint0_linear_1372_4413)"/>
<mask id="mask0_1372_4413" style="mask-type:alpha" maskUnits="userSpaceOnUse" x="3" y="15" width="17" height="9">
<path d="M11.3626 23.6406C6.80659 23.6406 3.10231 20.155 3.00256 15.8197C3.00128 15.8793 3 15.9392 3 15.9988C3 20.4172 6.74351 23.9992 11.3621 23.9992C15.9799 23.9992 19.7239 20.4168 19.7239 15.9988C19.7239 15.9388 19.723 15.8793 19.7217 15.8197C19.6224 20.155 15.9177 23.6406 11.3626 23.6406Z" fill="url(#paint1_linear_1372_4413)"/>
</mask>
<g mask="url(#mask0_1372_4413)">
<path d="M11.3626 23.6406C6.80659 23.6406 3.10231 20.155 3.00256 15.8197C3.00128 15.8793 3 15.9392 3 15.9988C3 20.4172 6.74351 23.9992 11.3621 23.9992C15.9799 23.9992 19.7239 20.4168 19.7239 15.9988C19.7239 15.9388 19.723 15.8793 19.7217 15.8197C19.6224 20.155 15.9177 23.6406 11.3626 23.6406Z" fill="url(#paint2_linear_1372_4413)"/>
<path opacity="0.35" d="M11.399 8C6.78037 8 3.03687 11.5816 3.03687 15.9996C3.03687 16.0973 3.04113 16.1929 3.04539 16.2898C5.17546 18.1173 8.10777 19.2473 11.3449 19.2473C14.6391 19.2473 17.6174 18.0771 19.7556 16.1925C19.7573 16.1279 19.7611 16.065 19.7611 15.9996C19.7611 11.5816 16.0168 8 11.399 8Z" fill="white"/>
<path opacity="0.49" d="M11.399 8.45742C15.9366 8.45742 19.6273 11.917 19.7543 16.228C19.7573 16.1525 19.7607 16.0761 19.7607 15.999C19.7607 11.581 16.0164 7.99939 11.3986 7.99939C6.78037 7.99939 3.03687 11.581 3.03687 15.999C3.03687 16.0761 3.0407 16.1521 3.04283 16.228C3.17071 11.917 6.86136 8.45742 11.399 8.45742Z" fill="white"/>
</g>
<g opacity="0.8">
<path d="M11.3992 10.0433C7.96518 10.0433 5.18164 12.7072 5.18164 15.9918C5.18164 19.2769 7.96518 21.9404 11.3992 21.9404C14.8332 21.9404 17.6164 19.2773 17.6164 15.9918C17.6164 12.7068 14.8332 10.0433 11.3992 10.0433Z" fill="url(#paint3_linear_1372_4413)"/>
<path opacity="0.39" d="M11.3991 10.0435C9.57549 10.0435 7.9352 10.7947 6.79834 11.9918C7.90792 11.0048 9.39432 10.4017 11.0291 10.4017C14.4622 10.4017 17.2458 13.0643 17.2458 16.3498C17.2458 17.8908 16.6337 19.2947 15.6289 20.3512C16.8515 19.2649 17.6162 17.7146 17.6162 15.9924C17.6162 12.7069 14.8331 10.0435 11.3991 10.0435Z" fill="#6A6A6A"/>
<path opacity="0.39" d="M7.52685 19.5101C7.52685 15.6714 10.3104 13.562 13.7436 13.562C15.1469 13.562 16.4406 14.0066 17.4803 14.7566C16.8865 12.0642 14.3889 10.0433 11.3978 10.0433C7.96421 10.0433 5.18066 12.7072 5.18066 15.9918C5.18066 17.936 6.15512 19.6611 7.66113 20.7466C7.57417 20.3473 7.52685 19.9342 7.52685 19.5101Z" fill="#747474"/>
</g>
<path d="M13.6739 15.9986L14.5001 14.4604L12.7418 14.4002C12.6442 14.3972 12.5488 14.3702 12.4637 14.3215C12.3787 14.2729 12.3065 14.204 12.2535 14.1209L11.3214 12.6436L10.3872 14.1202C10.3341 14.2033 10.262 14.2722 10.177 14.3208C10.0919 14.3694 9.99648 14.3965 9.89885 14.3995L8.14062 14.4596L8.96674 15.9979C9.01288 16.0835 9.03706 16.1796 9.03706 16.2772C9.03706 16.3748 9.01288 16.4708 8.96674 16.5565L8.14062 18.0947L9.89885 18.1548C9.99648 18.1579 10.0919 18.1849 10.177 18.2335C10.262 18.2822 10.3341 18.351 10.3872 18.4341L11.3193 19.9115L12.2514 18.4334C12.3044 18.3503 12.3765 18.2814 12.4616 18.2328C12.5467 18.1842 12.6421 18.1572 12.7397 18.1541L14.4979 18.094L13.6718 16.5557C13.6262 16.4701 13.6025 16.3742 13.6029 16.2769C13.6032 16.1796 13.6277 16.0839 13.6739 15.9986Z" fill="white"/>
<mask id="mask1_1372_4413" style="mask-type:alpha" maskUnits="userSpaceOnUse" x="4" y="11" width="4" height="3">
<path d="M5.87926 11.2777C5.21084 11.2777 4.66895 11.7742 4.66895 12.387C4.66895 12.9988 5.21084 13.4956 5.87926 13.4956C6.54737 13.4956 7.08927 12.9988 7.08927 12.387C7.08896 11.7742 6.54706 11.2777 5.87926 11.2777Z" fill="url(#paint4_radial_1372_4413)"/>
</mask>
<g mask="url(#mask1_1372_4413)">
<path d="M5.87926 11.2777C5.21084 11.2777 4.66895 11.7742 4.66895 12.387C4.66895 12.9988 5.21084 13.4956 5.87926 13.4956C6.54737 13.4956 7.08927 12.9988 7.08927 12.387C7.08896 11.7742 6.54706 11.2777 5.87926 11.2777Z" fill="url(#paint5_radial_1372_4413)"/>
<path opacity="0.7" d="M4.77417 13.8463C5.09912 13.4876 6.05392 12.3872 6.05392 12.3872C6.05392 12.3872 6.85165 10.9142 6.87109 10.8729C6.87633 10.861 5.85179 12.2578 5.85179 12.2578L4.77417 13.8463Z" fill="white"/>
<path d="M6.14225 12.1232C5.84816 11.8967 5.90155 11.2602 5.89908 11.0798C5.89908 11.1315 5.89908 11.1901 5.89908 11.2526C5.89908 11.225 5.89692 11.1952 5.89692 11.1888C5.89692 11.1506 5.89692 11.1141 5.89692 11.0801C5.89661 11.1318 5.89291 11.2137 5.88056 11.3082C5.88056 11.3082 5.79416 11.9474 5.63862 12.0792C5.28806 12.3819 4.40609 12.3236 4.74431 12.3312C5.88674 12.3555 5.88674 13.4526 5.89692 13.8124C5.89692 13.7647 5.89692 13.7028 5.89692 13.6314C5.89785 13.6445 5.89908 13.6551 5.89908 13.6618C5.89908 13.7204 5.89908 13.772 5.89908 13.8127C5.92315 12.9607 5.92037 12.4217 6.91714 12.3497C7.24734 12.3242 6.48665 12.3871 6.14225 12.1232Z" fill="white"/>
</g>
<defs>
<linearGradient id="paint0_linear_1372_4413" x1="11.0298" y1="7.15448" x2="11.7065" y2="23.9003" gradientUnits="userSpaceOnUse">
<stop stop-color="#FBFBFB"/>
<stop offset="1" stop-color="#757575"/>
</linearGradient>
<linearGradient id="paint1_linear_1372_4413" x1="3.0003" y1="19.9096" x2="19.7246" y2="19.9096" gradientUnits="userSpaceOnUse">
<stop offset="0.2469"/>
<stop offset="1" stop-color="white"/>
</linearGradient>
<linearGradient id="paint2_linear_1372_4413" x1="3.0003" y1="19.9096" x2="19.7246" y2="19.9096" gradientUnits="userSpaceOnUse">
<stop offset="0.2469" stop-color="#C7C7C7"/>
<stop offset="1" stop-color="#6F6F6F"/>
</linearGradient>
<linearGradient id="paint3_linear_1372_4413" x1="11.399" y1="12.3112" x2="11.399" y2="22.5877" gradientUnits="userSpaceOnUse">
<stop stop-color="#6B6B6B"/>
<stop offset="1" stop-color="#C2C2C2"/>
</linearGradient>
<radialGradient id="paint4_radial_1372_4413" cx="0" cy="0" r="1" gradientUnits="userSpaceOnUse" gradientTransform="translate(5.87898 12.3865) scale(1.16926 1.15053)">
<stop offset="0.0935" stop-color="white"/>
<stop offset="0.1705" stop-color="#F6F6F6"/>
<stop offset="0.2961" stop-color="#DEDEDE"/>
<stop offset="0.4548" stop-color="#B6B6B6"/>
<stop offset="0.6402" stop-color="#7F7F7F"/>
<stop offset="0.8457" stop-color="#393939"/>
<stop offset="1"/>
</radialGradient>
<radialGradient id="paint5_radial_1372_4413" cx="0" cy="0" r="1" gradientUnits="userSpaceOnUse" gradientTransform="translate(5.87898 12.3865) scale(1.16926 1.15053)">
<stop offset="0.0935" stop-color="white"/>
<stop offset="1" stop-color="white"/>
</radialGradient>
</defs>
</svg>
