<svg width="24" height="24" viewBox="0 0 24 24" fill="none" xmlns="http://www.w3.org/2000/svg">
<path d="M12.5586 11.3466C12.7504 11.3755 12.9517 11.2513 13.0701 11.075L19.8698 0.948184C19.9954 0.761088 20.0072 0.520469 19.9004 0.322097C19.7934 0.123883 19.5853 0 19.3588 0H14.0953C13.8901 0 13.6983 0.101966 13.5844 0.27159L7.24951 9.70626C7.06123 9.98643 7.14617 10.4791 7.41986 10.552L12.5586 11.3466Z" fill="#9457D2"/>
<path d="M17.8795 0L10.4253 11.0167L9.08545 10.8096L16.3994 0H17.8795Z" fill="#B780FD"/>
<path d="M10.4145 11.3466C10.2227 11.3755 10.0211 11.2513 9.90293 11.075L3.10321 0.948184C2.97748 0.761088 2.96581 0.520469 3.07266 0.322097C3.17951 0.123725 3.38778 0 3.61428 0H8.87759C9.08298 0 9.27477 0.101965 9.38866 0.27159L15.7235 9.70626C15.9118 9.98643 15.8267 10.4791 15.5532 10.552L10.4145 11.3466Z" fill="#A366F0"/>
<path d="M5.09351 0L12.5478 11.0167L13.8876 10.8096L6.57345 0H5.09351Z" fill="#C495FF"/>
<path d="M16.9776 5.98537V8.98569H5.99512V5.98537C5.99512 4.93008 7.04618 3.99365 8.34851 3.99365H14.6242C15.9266 3.99365 16.9776 4.93008 16.9776 5.98537Z" fill="url(#paint0_linear_1372_4447)"/>
<path d="M16.9774 5.98537V8.98569H11.9854V3.99365H14.8379C16.0219 3.99365 16.9774 4.93008 16.9774 5.98537Z" fill="url(#paint1_linear_1372_4447)"/>
<path d="M19.5197 15.6804C19.5197 16.3691 20.1512 17.1247 19.9659 17.7596C19.7745 18.4167 18.8099 18.7808 18.4467 19.3565C18.0783 19.9398 18.2129 20.8865 17.6959 21.36C17.1793 21.834 16.147 21.7106 15.5103 22.0483C14.8822 22.3812 14.4854 23.2654 13.7682 23.4409C13.0755 23.6107 12.2512 23.0318 11.5 23.0318C10.7487 23.0318 9.92443 23.6107 9.23172 23.4409C8.51454 23.2654 8.1177 22.3812 7.48968 22.0483C6.85291 21.7106 5.82062 21.834 5.30404 21.36C4.78702 20.8865 4.92163 19.9402 4.5532 19.3565C4.19002 18.7808 3.22547 18.4167 3.03405 17.7596C2.84874 17.1247 3.48026 16.3691 3.48026 15.6804C3.48026 14.9918 2.84874 14.2362 3.03405 13.6012C3.22547 12.9438 4.19002 12.5796 4.5532 12.0043C4.92163 11.4206 4.78702 10.4744 5.30404 10.0008C5.82062 9.52689 6.85291 9.65028 7.48968 9.31256C8.1177 8.97964 8.51454 8.09547 9.23172 7.92C9.92443 7.75014 10.7487 8.32904 11.5 8.32904C12.2512 8.32904 13.0755 7.75014 13.7682 7.92C14.4854 8.09547 14.8822 8.97964 15.5103 9.31256C16.147 9.65028 17.1793 9.52689 17.6959 10.0008C18.2129 10.4744 18.0783 11.4206 18.4467 12.0043C18.8099 12.5796 19.7745 12.9438 19.9659 13.6012C20.1512 14.2362 19.5197 14.9918 19.5197 15.6804Z" fill="url(#paint2_linear_1372_4447)"/>
<path d="M19.5197 14.5C19.5197 15.2512 20.1512 16.0755 19.9659 16.7682C19.7745 17.485 18.8099 17.8822 18.4467 18.5102C18.0783 19.1466 18.2129 20.1793 17.6959 20.6959C17.1793 21.2129 16.147 21.0783 15.5103 21.4467C14.8822 21.8099 14.4854 22.7745 13.7682 22.9659C13.0755 23.1512 12.2512 22.5197 11.5 22.5197C10.7487 22.5197 9.92443 23.1512 9.23172 22.9659C8.51454 22.7745 8.1177 21.8099 7.48968 21.4467C6.85291 21.0783 5.82062 21.2129 5.30404 20.6959C4.78702 20.1793 4.92163 19.147 4.5532 18.5102C4.19002 17.8822 3.22547 17.485 3.03405 16.7682C2.84874 16.0755 3.48026 15.2512 3.48026 14.5C3.48026 13.7487 2.84874 12.9244 3.03405 12.2317C3.22547 11.5145 4.19002 11.1173 4.5532 10.4897C4.92163 9.85291 4.78702 8.82062 5.30404 8.30404C5.82062 7.78702 6.85291 7.92162 7.48968 7.5532C8.1177 7.19002 8.51454 6.22547 9.23172 6.03405C9.92443 5.84874 10.7487 6.48026 11.5 6.48026C12.2512 6.48026 13.0755 5.84874 13.7682 6.03405C14.4854 6.22547 14.8822 7.19002 15.5103 7.5532C16.147 7.92162 17.1793 7.78702 17.6959 8.30404C18.2129 8.82062 18.0783 9.85291 18.4467 10.4897C18.8099 11.1173 19.7745 11.5145 19.9659 12.2317C20.1512 12.9244 19.5197 13.7487 19.5197 14.5Z" fill="url(#paint3_linear_1372_4447)"/>
<g opacity="0.8">
<path d="M11.6031 8.83337C8.23404 8.83337 5.50317 11.371 5.50317 14.5C5.50317 17.6294 8.23404 20.1666 11.6031 20.1666C14.9721 20.1666 17.7026 17.6298 17.7026 14.5C17.7026 11.3706 14.9721 8.83337 11.6031 8.83337Z" fill="url(#paint4_linear_1372_4447)"/>
<path opacity="0.39" d="M11.6028 8.83337C9.8137 8.83337 8.20446 9.54899 7.08911 10.6893C8.17769 9.74917 9.63597 9.1746 11.2398 9.1746C14.608 9.1746 17.3388 11.711 17.3388 14.8408C17.3388 16.3088 16.7383 17.6462 15.7526 18.6527C16.952 17.6178 17.7023 16.141 17.7023 14.5004C17.7023 11.3706 14.9718 8.83337 11.6028 8.83337Z" fill="#652D9D"/>
<path opacity="0.3" d="M7.80399 17.8515C7.80399 14.1947 10.5349 12.1853 13.9031 12.1853C15.2798 12.1853 16.549 12.6088 17.569 13.3233C16.9865 10.7585 14.5362 8.83337 11.6017 8.83337C8.23306 8.83337 5.5022 11.371 5.5022 14.5C5.5022 16.352 6.45821 17.9954 7.93572 19.0294C7.85041 18.649 7.80399 18.2555 7.80399 17.8515Z" fill="#531C8A"/>
</g>
<path d="M13.8349 14.5061L14.6453 13.0408L12.9204 12.9835C12.8246 12.9806 12.731 12.9548 12.6475 12.9085C12.5641 12.8622 12.4933 12.7966 12.4413 12.7174L11.5268 11.3101L10.6103 12.7167C10.5583 12.7959 10.4875 12.8615 10.4041 12.9078C10.3206 12.9542 10.227 12.9799 10.1312 12.9828L8.40625 13.0401L9.21673 14.5054C9.262 14.587 9.28572 14.6785 9.28572 14.7715C9.28572 14.8644 9.262 14.9559 9.21673 15.0375L8.40625 16.5029L10.1312 16.5602C10.227 16.5631 10.3206 16.5888 10.4041 16.6351C10.4875 16.6815 10.5583 16.747 10.6103 16.8262L11.5248 18.2336L12.4392 16.8255C12.4912 16.7463 12.562 16.6808 12.6455 16.6344C12.7289 16.5881 12.8225 16.5624 12.9183 16.5595L14.6433 16.5022L13.8328 15.0368C13.788 14.9553 13.7647 14.8639 13.7651 14.7712C13.7655 14.6785 13.7895 14.5873 13.8349 14.5061Z" fill="white"/>
<mask id="mask0_1372_4447" style="mask-type:alpha" maskUnits="userSpaceOnUse" x="5" y="10" width="3" height="3">
<path d="M6.18741 10.0092C5.53164 10.0092 5 10.4821 5 11.0658C5 11.6487 5.53164 12.1219 6.18741 12.1219C6.84288 12.1219 7.37452 11.6487 7.37452 11.0658C7.37422 10.4821 6.84258 10.0092 6.18741 10.0092Z" fill="url(#paint5_radial_1372_4447)"/>
</mask>
<g mask="url(#mask0_1372_4447)">
<path d="M6.18741 10.0092C5.53164 10.0092 5 10.4821 5 11.0658C5 11.6487 5.53164 12.1219 6.18741 12.1219C6.84288 12.1219 7.37452 11.6487 7.37452 11.0658C7.37422 10.4821 6.84258 10.0092 6.18741 10.0092Z" fill="url(#paint6_radial_1372_4447)"/>
<path opacity="0.7" d="M5.10303 12.4562C5.42183 12.1146 6.35856 11.0663 6.35856 11.0663C6.35856 11.0663 7.14119 9.66307 7.16026 9.62373C7.16541 9.61245 6.16026 10.9431 6.16026 10.9431L5.10303 12.4562Z" fill="white"/>
<path d="M6.44566 10.8148C6.15714 10.599 6.20951 9.99275 6.20709 9.82092C6.20709 9.8701 6.20709 9.92593 6.20709 9.98551C6.20709 9.95919 6.20497 9.93084 6.20497 9.92477C6.20497 9.88832 6.20497 9.85361 6.20497 9.82121C6.20467 9.87039 6.20104 9.94849 6.18893 10.0384C6.18893 10.0384 6.10415 10.6473 5.95156 10.7729C5.60763 11.0613 4.74235 11.0057 5.07417 11.013C6.19498 11.0361 6.19498 12.0812 6.20497 12.424C6.20497 12.3786 6.20497 12.3196 6.20497 12.2516C6.20588 12.264 6.20709 12.2742 6.20709 12.2805C6.20709 12.3364 6.20709 12.3855 6.20709 12.4243C6.23071 11.6126 6.22798 11.0992 7.20589 11.0306C7.52983 11.0063 6.78354 11.0662 6.44566 10.8148Z" fill="white"/>
</g>
<defs>
<linearGradient id="paint0_linear_1372_4447" x1="9.48955" y1="3.49445" x2="11.9856" y2="8.98569" gradientUnits="userSpaceOnUse">
<stop stop-color="#FFCB46"/>
<stop offset="1" stop-color="#F1B20F"/>
</linearGradient>
<linearGradient id="paint1_linear_1372_4447" x1="14.4814" y1="3.99365" x2="14.4814" y2="8.98569" gradientUnits="userSpaceOnUse">
<stop stop-color="#FFC700"/>
<stop offset="1" stop-color="#DE7800"/>
</linearGradient>
<linearGradient id="paint2_linear_1372_4447" x1="19.1904" y1="19.3907" x2="4.28687" y2="22.0272" gradientUnits="userSpaceOnUse">
<stop offset="0.227778" stop-color="#8D45C9"/>
<stop offset="1" stop-color="#A464F6"/>
</linearGradient>
<linearGradient id="paint3_linear_1372_4447" x1="9.99997" y1="24.9999" x2="9.49997" y2="7" gradientUnits="userSpaceOnUse">
<stop offset="0.227778" stop-color="#7634AE"/>
<stop offset="1" stop-color="#B780FD"/>
</linearGradient>
<linearGradient id="paint4_linear_1372_4447" x1="11.6029" y1="10.9937" x2="11.6029" y2="20.7832" gradientUnits="userSpaceOnUse">
<stop stop-color="#7A3BC9"/>
<stop offset="1" stop-color="#CB97FF"/>
</linearGradient>
<radialGradient id="paint5_radial_1372_4447" cx="0" cy="0" r="1" gradientUnits="userSpaceOnUse" gradientTransform="translate(6.18714 11.0654) scale(1.14714 1.09601)">
<stop offset="0.0935" stop-color="white"/>
<stop offset="0.1705" stop-color="#F6F6F6"/>
<stop offset="0.2961" stop-color="#DEDEDE"/>
<stop offset="0.4548" stop-color="#B6B6B6"/>
<stop offset="0.6402" stop-color="#7F7F7F"/>
<stop offset="0.8457" stop-color="#393939"/>
<stop offset="1"/>
</radialGradient>
<radialGradient id="paint6_radial_1372_4447" cx="0" cy="0" r="1" gradientUnits="userSpaceOnUse" gradientTransform="translate(6.18714 11.0654) scale(1.14714 1.09601)">
<stop offset="0.0935" stop-color="white"/>
<stop offset="1" stop-color="white"/>
</radialGradient>
</defs>
</svg>
