<svg viewBox="0 0 497 96" fill="currentColor" xmlns="http://www.w3.org/2000/svg">
  <path d="M43.6875 79H33.9844V49.0469C33.9844 46.9844 33.7656 45.4688 33.3281 44.5C32.9219 43.5 32.1875 43 31.125 43C29.1875 43 27.9531 44.0938 27.4219 46.2812C26.9219 48.4375 26.6719 51.5938 26.6719 55.75V79H16.9688V49.0469C16.9688 46.9844 16.75 45.4688 16.3125 44.5C15.875 43.5 15.1094 43 14.0156 43C12.1094 43 10.9062 44.0938 10.4062 46.2812C9.9375 48.4375 9.70312 51.5938 9.70312 55.75V79H0V35.3125H9.79688V41.6406C10.4844 39.2344 11.5 37.4062 12.8438 36.1562C14.1875 34.9062 15.9844 34.2812 18.2344 34.2812C20.1094 34.2812 21.6719 34.8594 22.9219 36.0156C24.2031 37.1406 25.0781 38.7031 25.5469 40.7031C26.6406 38.5156 27.7656 36.9062 28.9219 35.875C30.1094 34.8125 31.9219 34.2812 34.3594 34.2812C37.3594 34.2812 39.6562 35.3906 41.25 37.6094C42.875 39.7969 43.6875 43.125 43.6875 47.5938V79ZM80.1562 29.6406H68.3438V17.8281H80.1562V29.6406ZM89.0625 79H59.7188V70.2812H69.375V44.0781H59.7188V35.3125H79.0781V70.2812H89.0625V79ZM146.203 79H136.5V52.0469C136.5 48.6406 135.859 46.2812 134.578 44.9688C133.297 43.6562 131.438 43 129 43C125.406 43 122.469 44.4531 120.188 47.3594C117.938 50.2656 116.812 54.2812 116.812 59.4062V79H107.109V35.3125H116.812V46.2812C117.781 42.5 119.578 39.5625 122.203 37.4688C124.828 35.3438 128.062 34.2812 131.906 34.2812C136.375 34.2812 139.875 35.7344 142.406 38.6406C144.938 41.5469 146.203 46.0156 146.203 52.0469V79ZM198.609 79H188.906V74.9688C187.031 76.625 185.141 77.8906 183.234 78.7656C181.328 79.6406 179.156 80.0781 176.719 80.0781C173.906 80.0781 171.297 79.5156 168.891 78.3906C166.484 77.2656 164.406 75.7031 162.656 73.7031C160.938 71.6719 159.578 69.25 158.578 66.4375C157.609 63.625 157.125 60.5469 157.125 57.2031C157.125 53.8906 157.609 50.8281 158.578 48.0156C159.578 45.1719 160.938 42.75 162.656 40.75C164.406 38.7188 166.484 37.1406 168.891 36.0156C171.297 34.8594 173.906 34.2812 176.719 34.2812C179.156 34.2812 181.328 34.7031 183.234 35.5469C185.141 36.3594 187.031 37.5938 188.906 39.25V26.5938H180.469V17.8281H198.609V79ZM188.906 46.9375C187.75 45.6562 186.25 44.6875 184.406 44.0312C182.594 43.3438 180.859 43 179.203 43C175.547 43 172.562 44.3125 170.25 46.9375C167.969 49.5625 166.828 52.9844 166.828 57.2031C166.828 61.4219 167.969 64.8281 170.25 67.4219C172.562 70.0156 175.547 71.3125 179.203 71.3125C180.859 71.3125 182.594 70.9844 184.406 70.3281C186.25 69.6406 187.75 68.6562 188.906 67.375V46.9375ZM254.672 35.3125L248.109 79H236.109L231.516 52.7031L226.828 79H214.828L208.266 35.3125H217.781L221.625 64.5156L226.312 35.3125H236.578L241.312 64.5156L245.156 35.3125H254.672ZM306.844 57.2031C306.844 60.6094 306.297 63.7031 305.203 66.4844C304.141 69.2656 302.594 71.6719 300.562 73.7031C298.562 75.7031 296.156 77.2656 293.344 78.3906C290.531 79.5156 287.391 80.0781 283.922 80.0781C280.516 80.0781 277.406 79.5156 274.594 78.3906C271.781 77.2656 269.359 75.7031 267.328 73.7031C265.328 71.6719 263.781 69.2656 262.688 66.4844C261.625 63.7031 261.094 60.6094 261.094 57.2031C261.094 53.8906 261.625 50.8281 262.688 48.0156C263.781 45.1719 265.328 42.7344 267.328 40.7031C269.359 38.6406 271.781 37.0625 274.594 35.9688C277.406 34.8438 280.516 34.2812 283.922 34.2812C287.391 34.2812 290.531 34.8438 293.344 35.9688C296.156 37.0625 298.562 38.6406 300.562 40.7031C302.594 42.7344 304.141 45.1719 305.203 48.0156C306.297 50.8281 306.844 53.8906 306.844 57.2031ZM297.188 57.2031C297.188 55.2344 296.875 53.375 296.25 51.625C295.656 49.8438 294.781 48.3281 293.625 47.0781C292.469 45.8281 291.062 44.8438 289.406 44.125C287.781 43.375 285.953 43 283.922 43C281.859 43 280.016 43.375 278.391 44.125C276.766 44.8438 275.391 45.8281 274.266 47.0781C273.141 48.3281 272.266 49.8438 271.641 51.625C271.047 53.375 270.75 55.2344 270.75 57.2031C270.75 59.2656 271.047 61.1406 271.641 62.8281C272.266 64.5156 273.141 66 274.266 67.2812C275.391 68.5625 276.766 69.5625 278.391 70.2812C280.016 70.9688 281.859 71.3125 283.922 71.3125C285.953 71.3125 287.781 70.9688 289.406 70.2812C291.062 69.5625 292.469 68.5625 293.625 67.2812C294.781 66 295.656 64.5156 296.25 62.8281C296.875 61.1406 297.188 59.2656 297.188 57.2031ZM357.047 45.6719C355.891 45.1094 354.703 44.6875 353.484 44.4062C352.297 44.0938 350.922 43.9375 349.359 43.9375C347.203 43.9375 345.172 44.2656 343.266 44.9219C341.391 45.5469 339.766 46.5 338.391 47.7812C337.016 49.0625 335.938 50.6719 335.156 52.6094C334.406 54.5156 334.031 56.7812 334.031 59.4062V70.2812H343.828V79H314.438V70.2812H324.328V44.0781H314.438V35.3125H334.031V46.2812C335.625 41.9062 337.969 38.8125 341.062 37C344.188 35.1875 347.891 34.2812 352.172 34.2812C353.516 34.2812 354.922 34.4219 356.391 34.7031C357.859 34.9844 359.297 35.4844 360.703 36.2031L357.047 45.6719ZM410.438 79H397.875L383.25 61.3281L378.844 65.8281V79H369.141V17.8281H378.844V53.8281L396.328 35.3125H409.641L389.484 55.375L410.438 79ZM461.766 65.9219C461.766 68.7656 461.125 71.0781 459.844 72.8594C458.562 74.6406 456.906 76.0781 454.875 77.1719C452.875 78.2656 450.625 79.0156 448.125 79.4219C445.656 79.8594 443.234 80.0781 440.859 80.0781C436.891 80.0781 432.938 79.5 429 78.3438C425.062 77.1875 421.656 75.6719 418.781 73.7969L422.812 65.8281C426.25 67.8281 429.391 69.25 432.234 70.0938C435.109 70.9062 437.984 71.3125 440.859 71.3125C444.766 71.3125 447.609 70.9062 449.391 70.0938C451.172 69.25 452.062 68.0938 452.062 66.625C452.062 65.9062 451.812 65.3125 451.312 64.8438C450.812 64.375 449.984 63.9531 448.828 63.5781C447.672 63.1719 446.141 62.7812 444.234 62.4062C442.359 62 440.016 61.5781 437.203 61.1406C434.953 60.7656 432.812 60.3125 430.781 59.7812C428.781 59.2188 427.016 58.4375 425.484 57.4375C423.953 56.4375 422.719 55.1719 421.781 53.6406C420.875 52.1094 420.422 50.1875 420.422 47.875C420.422 45.5312 421.016 43.5 422.203 41.7812C423.422 40.0312 425 38.5938 426.938 37.4688C428.906 36.3438 431.109 35.5312 433.547 35.0312C435.984 34.5312 438.422 34.2812 440.859 34.2812C444.297 34.2812 447.625 34.7344 450.844 35.6406C454.094 36.5156 456.938 37.7812 459.375 39.4375L455.531 46.9375C453.094 45.4062 450.719 44.375 448.406 43.8438C446.125 43.2812 443.609 43 440.859 43C439.703 43 438.5 43.0625 437.25 43.1875C436 43.3125 434.844 43.5625 433.781 43.9375C432.719 44.2812 431.828 44.7656 431.109 45.3906C430.422 45.9844 430.078 46.7188 430.078 47.5938C430.078 48.75 431.094 49.7031 433.125 50.4531C435.188 51.1719 438.688 51.8906 443.625 52.6094C446.312 52.9844 448.766 53.4688 450.984 54.0625C453.203 54.625 455.109 55.4062 456.703 56.4062C458.297 57.375 459.531 58.6406 460.406 60.2031C461.312 61.7344 461.766 63.6406 461.766 65.9219Z" fill="currentColor"/>
  <path fill-rule="evenodd" clip-rule="evenodd" d="M467 33C467 41.2842 473.716 48 482 48C490.284 48 497 41.2842 497 33C497 24.7158 490.284 18 482 18C473.716 18 467 24.7158 467 33Z" fill="#111111"/>
  </svg>
