<svg width="60" height="60" viewBox="0 0 60 60" fill="none" xmlns="http://www.w3.org/2000/svg">
<path fill-rule="evenodd" clip-rule="evenodd" d="M10 38.965L20 28.965L28.75 37.715L45 21.465L50 26.465V10H10V38.965ZM10 46.035V50H33.965L20 36.035L10 46.035ZM41.035 50H50V33.535L45 28.535L32.285 41.25L41.035 50ZM10 5H50C51.3261 5 52.5978 5.52678 53.5355 6.46447C54.4732 7.40215 55 8.67392 55 10V50C55 51.3261 54.4732 52.5978 53.5355 53.5355C52.5978 54.4732 51.3261 55 50 55H10C8.67392 55 7.40215 54.4732 6.46447 53.5355C5.52678 52.5978 5 51.3261 5 50V10C5 8.67392 5.52678 7.40215 6.46447 6.46447C7.40215 5.52678 8.67392 5 10 5ZM27.5 12.5C29.4891 12.5 31.3968 13.2902 32.8033 14.6967C34.2098 16.1032 35 18.0109 35 20C35 21.9891 34.2098 23.8968 32.8033 25.3033C31.3968 26.7098 29.4891 27.5 27.5 27.5C25.5109 27.5 23.6032 26.7098 22.1967 25.3033C20.7902 23.8968 20 21.9891 20 20C20 18.0109 20.7902 16.1032 22.1967 14.6967C23.6032 13.2902 25.5109 12.5 27.5 12.5ZM27.5 17.5C26.837 17.5 26.2011 17.7634 25.7322 18.2322C25.2634 18.7011 25 19.337 25 20C25 20.663 25.2634 21.2989 25.7322 21.7678C26.2011 22.2366 26.837 22.5 27.5 22.5C28.163 22.5 28.7989 22.2366 29.2678 21.7678C29.7366 21.2989 30 20.663 30 20C30 19.337 29.7366 18.7011 29.2678 18.2322C28.7989 17.7634 28.163 17.5 27.5 17.5Z" fill="#3C3C3C"/>
</svg>
