<svg width="60" height="60" viewBox="0 0 60 60" fill="none" xmlns="http://www.w3.org/2000/svg">
<path d="M40 15C40 14.337 39.7366 13.7011 39.2678 13.2322C38.7989 12.7634 38.163 12.5 37.5 12.5H7.5C6.83696 12.5 6.20107 12.7634 5.73223 13.2322C5.26339 13.7011 5 14.337 5 15C5 15.663 5.26339 16.2989 5.73223 16.7678C6.20107 17.2366 6.83696 17.5 7.5 17.5H20V45C20 45.663 20.2634 46.2989 20.7322 46.7678C21.2011 47.2366 21.837 47.5 22.5 47.5C23.163 47.5 23.7989 47.2366 24.2678 46.7678C24.7366 46.2989 25 45.663 25 45V17.5H37.5C38.163 17.5 38.7989 17.2366 39.2678 16.7678C39.7366 16.2989 40 15.663 40 15ZM52.5 27.5H37.5C36.837 27.5 36.2011 27.7634 35.7322 28.2322C35.2634 28.7011 35 29.337 35 30C35 30.663 35.2634 31.2989 35.7322 31.7678C36.2011 32.2366 36.837 32.5 37.5 32.5H42.5V45C42.5 45.663 42.7634 46.2989 43.2322 46.7678C43.7011 47.2366 44.337 47.5 45 47.5C45.663 47.5 46.2989 47.2366 46.7678 46.7678C47.2366 46.2989 47.5 45.663 47.5 45V32.5H52.5C53.163 32.5 53.7989 32.2366 54.2678 31.7678C54.7366 31.2989 55 30.663 55 30C55 29.337 54.7366 28.7011 54.2678 28.2322C53.7989 27.7634 53.163 27.5 52.5 27.5Z" fill="#3C3C3C"/>
</svg>
