<svg width="60" height="60" viewBox="0 0 60 60" fill="none" xmlns="http://www.w3.org/2000/svg">
<path d="M24.375 7.5H32.1973C33.1915 7.50015 34.1449 7.89511 34.848 8.59805L51.402 25.152C52.1049 25.8551 52.4998 26.8085 52.5 27.8027V50.625C52.5 52.1168 51.9074 53.5476 50.8525 54.6025C49.7976 55.6574 48.3668 56.25 46.875 56.25H22.5C21.0082 56.25 19.5774 55.6574 18.5225 54.6025C17.4676 53.5476 16.875 52.1168 16.875 50.625V35.625" stroke="#3C3C3C" stroke-width="4" stroke-linecap="round" stroke-linejoin="round"/>
<path d="M33.75 8.4375V22.5C33.75 23.4946 34.1451 24.4484 34.8484 25.1516C35.5516 25.8549 36.5054 26.25 37.5 26.25H51.5625" stroke="#3C3C3C" stroke-width="4" stroke-linecap="round" stroke-linejoin="round"/>
<path d="M18.75 9.375V27.1875C18.7549 27.5582 18.6855 27.9261 18.5459 28.2695C18.4062 28.613 18.1993 28.925 17.9371 29.1871C17.675 29.4493 17.363 29.6562 17.0195 29.7959C16.6761 29.9355 16.3082 30.0049 15.9375 30C14.5312 30 13.125 28.9336 13.125 27.1875V10.3125C13.125 6.72773 15.0668 3.75 18.75 3.75C22.4332 3.75 24.375 6.65625 24.375 10.2398V26.4996C24.375 31.5387 21.1148 35.625 15.9375 35.625C10.7602 35.625 7.5 31.5398 7.5 26.4996V16.875" stroke="#3C3C3C" stroke-width="4" stroke-miterlimit="10" stroke-linecap="round"/>
</svg>
