<svg width="24" height="24" viewBox="0 0 24 24" fill="none" xmlns="http://www.w3.org/2000/svg">
<path d="M17 6H22V8H20V21C20 21.2652 19.8947 21.5196 19.7072 21.7071C19.5196 21.8946 19.2653 22 19 22H5.00005C4.73483 22 4.48048 21.8946 4.29294 21.7071C4.1054 21.5196 4.00005 21.2652 4.00005 21V8H2.00005V6H7.00005V3C7.00005 2.73478 7.1054 2.48043 7.29294 2.29289C7.48048 2.10536 7.73483 2 8.00005 2H16C16.2653 2 16.5196 2.10536 16.7072 2.29289C16.8947 2.48043 17 2.73478 17 3V6ZM18 8H6.00005V20H18V8ZM13.414 14L15.182 15.768L13.768 17.182L12 15.414L10.232 17.182L8.81805 15.768L10.586 14L8.81805 12.232L10.232 10.818L12 12.586L13.768 10.818L15.182 12.232L13.414 14ZM9.00005 4V6H15V4H9.00005Z" fill="#FF4B4B"/>
</svg>
