<svg width="24" height="24" viewBox="0 0 24 24" fill="none" xmlns="http://www.w3.org/2000/svg">
<path fill-rule="evenodd" clip-rule="evenodd" d="M4.50005 14.25C3.90331 14.25 3.33101 14.0129 2.90906 13.591C2.4871 13.169 2.25005 12.5967 2.25005 12C2.25005 11.4033 2.4871 10.831 2.90906 10.409C3.33101 9.98705 3.90331 9.75 4.50005 9.75C5.09678 9.75 5.66908 9.98705 6.09104 10.409C6.51299 10.831 6.75005 11.4033 6.75005 12C6.75005 12.5967 6.51299 13.169 6.09104 13.591C5.66908 14.0129 5.09678 14.25 4.50005 14.25ZM12 14.25C11.4033 14.25 10.831 14.0129 10.4091 13.591C9.9871 13.169 9.75005 12.5967 9.75005 12C9.75005 11.4033 9.9871 10.831 10.4091 10.409C10.831 9.98705 11.4033 9.75 12 9.75C12.5968 9.75 13.1691 9.98705 13.591 10.409C14.013 10.831 14.25 11.4033 14.25 12C14.25 12.5967 14.013 13.169 13.591 13.591C13.1691 14.0129 12.5968 14.25 12 14.25ZM19.5 14.25C18.9033 14.25 18.331 14.0129 17.9091 13.591C17.4871 13.169 17.25 12.5967 17.25 12C17.25 11.4033 17.4871 10.831 17.9091 10.409C18.331 9.98705 18.9033 9.75 19.5 9.75C20.0968 9.75 20.6691 9.98705 21.091 10.409C21.513 10.831 21.75 11.4033 21.75 12C21.75 12.5967 21.513 13.169 21.091 13.591C20.6691 14.0129 20.0968 14.25 19.5 14.25Z" fill="#A4A4A4"/>
</svg>
