<svg width="217" height="65" viewBox="0 0 217 65" fill="none" xmlns="http://www.w3.org/2000/svg">
<path d="M214.742 56.553C214.742 57.3585 214.583 58.1561 214.275 58.9002C213.966 59.6443 213.514 60.3203 212.944 60.8896C212.374 61.4589 211.697 61.9103 210.952 62.2179C210.208 62.5256 209.41 62.6835 208.604 62.6827H7.74533C6.11736 62.6844 4.55537 62.0396 3.40287 60.8901C2.25037 59.7406 1.60173 58.1806 1.59961 56.553V7.67077C1.60173 6.04249 2.25011 4.48161 3.40238 3.33085C4.55465 2.18008 6.11662 1.5335 7.74533 1.53308H208.603C209.409 1.53308 210.207 1.69185 210.952 2.00032C211.697 2.30878 212.373 2.76091 212.943 3.33087C213.513 3.90082 213.965 4.57745 214.274 5.3221C214.582 6.06675 214.74 6.86483 214.74 7.67077L214.742 56.553Z" fill="white"/>
<path d="M208.603 64.1086H7.74432C5.73884 64.1082 3.81544 63.3125 2.39616 61.8959C0.97688 60.4794 0.177644 58.5579 0.173828 56.553L0.173828 7.67232C0.176795 5.66639 0.975503 3.74353 2.39474 2.32557C3.81398 0.907612 5.73785 0.110336 7.74432 0.108643L208.602 0.108643C210.608 0.11118 212.531 0.908728 213.95 2.32651C215.369 3.74428 216.168 5.66665 216.172 7.67232V56.553C216.175 60.7205 212.773 64.1086 208.603 64.1086Z" fill="#A6A6A6"/>
<path d="M214.742 56.553C214.742 57.3585 214.583 58.1561 214.275 58.9002C213.966 59.6443 213.514 60.3203 212.944 60.8896C212.374 61.4589 211.697 61.9103 210.952 62.2179C210.208 62.5256 209.41 62.6835 208.604 62.6827H7.74533C6.11736 62.6844 4.55537 62.0396 3.40287 60.8901C2.25037 59.7406 1.60173 58.1806 1.59961 56.553V7.67077C1.60173 6.04249 2.25011 4.48161 3.40238 3.33085C4.55465 2.18008 6.11662 1.5335 7.74533 1.53308H208.603C209.409 1.53308 210.207 1.69185 210.952 2.00032C211.697 2.30878 212.373 2.76091 212.943 3.33087C213.513 3.90082 213.965 4.57745 214.274 5.3221C214.582 6.06675 214.74 6.86483 214.74 7.67077L214.742 56.553Z" fill="black"/>
<path d="M48.4051 31.7718C48.3587 26.6135 52.6298 24.1041 52.8251 23.9872C50.4062 20.4615 46.6569 19.9797 45.3394 19.9413C42.1905 19.61 39.1361 21.825 37.532 21.825C35.8959 21.825 33.4258 19.9733 30.7636 20.0277C27.3377 20.0806 24.1328 22.0635 22.375 25.1427C18.7475 31.4213 21.4529 40.6478 24.9284 45.7228C26.6669 48.2099 28.6984 50.9834 31.3575 50.8858C33.9589 50.7802 34.9306 49.2294 38.0699 49.2294C41.1804 49.2294 42.0929 50.8858 44.8047 50.8234C47.5966 50.7802 49.3544 48.3267 51.0321 45.8188C53.0412 42.9716 53.848 40.1645 53.88 40.0204C53.816 39.998 48.4595 37.9527 48.4051 31.7718ZM43.2823 16.6028C44.6815 14.8535 45.6388 12.4737 45.373 10.0586C43.3479 10.1482 40.8154 11.459 39.357 13.1698C38.0667 14.6775 36.9141 17.1485 37.2118 19.4724C39.4867 19.642 41.8223 18.3249 43.2823 16.6028Z" fill="white"/>
<path d="M208.604 0.108643H101.018L143.157 64.1086H208.604C210.61 64.1069 212.533 63.3101 213.952 61.8928C215.371 60.4756 216.17 58.5535 216.174 56.5482V7.67232C216.171 5.66652 215.372 3.74391 213.953 2.32604C212.534 0.90817 210.61 0.110758 208.604 0.108643V0.108643Z" fill="url(#paint0_linear_1810_6007)"/>
<path d="M86.0834 50.5289H82.4478L80.4563 44.2727H73.5342L71.6372 50.5289H68.0977L74.9574 29.2302H79.1932L86.0834 50.5289ZM79.856 41.648L78.055 36.0865C77.8645 35.5183 77.5059 34.1804 76.9809 32.0742H76.9168C76.7055 32.98 76.3677 34.318 75.9051 36.0865L74.1345 41.648H79.856ZM103.69 42.6611C103.69 45.273 102.98 47.3376 101.561 48.8532C100.289 50.2024 98.7094 50.8762 96.8252 50.8762C94.7905 50.8762 93.3273 50.1512 92.4388 48.698V56.7562H89.0258V40.2188C89.0258 38.5784 88.9825 36.8963 88.8993 35.171H91.9009L92.0914 37.6053H92.1554C93.2937 35.7712 95.021 34.8541 97.339 34.8541C99.1512 34.8541 100.664 35.5695 101.874 37.0019C103.083 38.4375 103.69 40.3229 103.69 42.6611ZM100.213 42.7859C100.213 41.2911 99.8764 40.0588 99.2008 39.0873C98.4628 38.0774 97.4719 37.5717 96.2296 37.5717C95.3876 37.5717 94.6224 37.8534 93.9388 38.4087C93.2536 38.9689 92.8054 39.7003 92.5957 40.6061C92.5021 40.9449 92.4489 41.2935 92.4372 41.6448V44.2071C92.4372 45.3226 92.7798 46.2653 93.465 47.0367C94.1501 47.8049 95.0402 48.1906 96.1352 48.1906C97.4207 48.1906 98.4212 47.6929 99.1368 46.7054C99.854 45.7147 100.213 44.4088 100.213 42.7859ZM121.358 42.6611C121.358 45.273 120.649 47.3376 119.229 48.8532C117.957 50.2024 116.378 50.8762 114.492 50.8762C112.458 50.8762 110.994 50.1512 110.106 48.698V56.7562H106.693V40.2188C106.693 38.5784 106.65 36.8963 106.566 35.171H109.568L109.759 37.6053H109.823C110.959 35.7712 112.687 34.8541 115.006 34.8541C116.817 34.8541 118.33 35.5695 119.543 37.0019C120.75 38.4375 121.358 40.3229 121.358 42.6611ZM117.88 42.7859C117.88 41.2911 117.542 40.0588 116.866 39.0873C116.128 38.0774 115.141 37.5717 113.898 37.5717C113.056 37.5717 112.291 37.8534 111.604 38.4087C110.919 38.9689 110.473 39.7003 110.263 40.6061C110.159 41.0286 110.103 41.3727 110.103 41.6448V44.2071C110.103 45.3226 110.447 46.2653 111.129 47.0367C111.814 47.8033 112.704 48.1906 113.802 48.1906C115.089 48.1906 116.09 47.6929 116.804 46.7054C117.521 45.7147 117.88 44.4088 117.88 42.7859ZM141.113 44.5544C141.113 46.3677 140.479 47.8417 139.219 48.9796C137.833 50.2216 135.897 50.8441 133.416 50.8441C131.124 50.8441 129.286 50.4024 127.9 49.5174L128.689 46.6734C130.186 47.56 131.83 48.0018 133.619 48.0018C134.907 48.0018 135.907 47.7105 136.621 47.1327C137.337 46.5534 137.698 45.7788 137.698 44.8121C137.698 43.9462 137.399 43.2213 136.812 42.6307C136.221 42.0417 135.244 41.4928 133.872 40.9886C130.142 39.5979 128.276 37.5637 128.276 34.8878C128.276 33.1401 128.935 31.7093 130.251 30.5906C131.567 29.4735 133.312 28.9149 135.483 28.9149C137.421 28.9149 139.037 29.2526 140.319 29.9264L139.463 32.708C138.256 32.055 136.893 31.7285 135.369 31.7285C134.165 31.7285 133.221 32.0246 132.545 32.6135C131.977 33.1401 131.689 33.7819 131.689 34.5437C131.689 35.3839 132.017 36.0817 132.67 36.629C133.237 37.1332 134.271 37.6821 135.766 38.2711C137.601 39.0105 138.949 39.8715 139.812 40.8606C140.681 41.8497 141.113 43.0836 141.113 44.5544ZM152.426 37.7317H148.664V45.1882C148.664 47.0847 149.327 48.0306 150.656 48.0306C151.266 48.0306 151.772 47.9794 152.172 47.8721L152.266 50.4632C151.594 50.7145 150.709 50.8409 149.612 50.8409C148.264 50.8409 147.211 50.4296 146.45 49.607C145.693 48.7844 145.312 47.4064 145.312 45.4667V37.7253H143.071V35.1646H145.312V32.3527L148.664 31.3412V35.1646H152.426V37.7317ZM169.367 42.7235C169.367 45.0842 168.691 47.0223 167.343 48.5379C165.933 50.0983 164.057 50.8762 161.718 50.8762C159.461 50.8762 157.666 50.1287 156.328 48.6355C154.989 47.1391 154.32 45.2538 154.32 42.9796C154.32 40.5997 155.012 38.6504 156.39 37.1348C157.772 35.6176 159.632 34.8589 161.971 34.8589C164.225 34.8589 166.035 35.608 167.406 37.1028C168.715 38.5528 169.367 40.4253 169.367 42.7235ZM165.829 42.8019C165.829 41.3951 165.525 40.1884 164.915 39.1785C164.199 37.959 163.175 37.3492 161.847 37.3492C160.48 37.3492 159.432 37.959 158.718 39.1785C158.106 40.1884 157.802 41.416 157.802 42.866C157.802 44.2743 158.106 45.4843 158.718 46.491C159.456 47.7105 160.485 48.3203 161.819 48.3203C163.123 48.3203 164.146 47.6977 164.886 46.4605C165.513 45.4267 165.829 44.2119 165.829 42.8019ZM180.466 38.1719C180.111 38.1078 179.75 38.0762 179.39 38.0774C178.189 38.0774 177.261 38.5288 176.607 39.4378C176.041 40.238 175.756 41.2495 175.756 42.4706V50.5289H172.343V40.0076C172.346 38.3954 172.313 36.7833 172.243 35.1726H175.216L175.341 38.111H175.436C175.797 37.1012 176.364 36.2865 177.142 35.6768C177.854 35.144 178.72 34.8554 179.609 34.8541C179.924 34.8541 180.209 34.8766 180.462 34.9166L180.466 38.1719ZM195.73 42.1234C195.738 42.6421 195.697 43.1604 195.605 43.671H185.366C185.404 45.1882 185.9 46.3501 186.851 47.1503C187.714 47.8641 188.83 48.2226 190.2 48.2226C191.716 48.2226 193.1 47.9826 194.343 47.4976L194.878 49.8647C193.425 50.4985 191.708 50.8137 189.728 50.8137C187.346 50.8137 185.476 50.1127 184.115 48.714C182.758 47.3136 182.078 45.4315 182.078 43.074C182.078 40.7598 182.71 38.8312 183.976 37.2932C185.302 35.6512 187.093 34.8301 189.347 34.8301C191.561 34.8301 193.237 35.6512 194.375 37.2932C195.277 38.5944 195.73 40.2076 195.73 42.1234ZM192.475 41.2383C192.499 40.2252 192.275 39.353 191.812 38.6152C191.222 37.6645 190.312 37.1908 189.094 37.1908C187.978 37.1908 187.069 37.6533 186.378 38.5816C185.809 39.3194 185.471 40.206 185.367 41.2351L192.475 41.2383Z" fill="white"/>
<path d="M72.5518 21.7002C71.6025 21.7002 70.7812 21.6538 70.0977 21.5753V11.2781C71.0537 11.1305 72.0198 11.0577 72.9872 11.0604C76.9013 11.0604 78.7039 12.9858 78.7039 16.1242C78.7039 19.7444 76.5747 21.7002 72.5518 21.7002ZM73.1249 12.3808C72.5966 12.3808 72.1468 12.4128 71.7738 12.4896V20.3174C71.9755 20.3494 72.3629 20.3638 72.9072 20.3638C75.4718 20.3638 76.9317 18.9042 76.9317 16.1706C76.9317 13.7332 75.611 12.3808 73.1249 12.3808ZM84.3213 21.7786C82.1153 21.7786 80.6858 20.1317 80.6858 17.8959C80.6858 15.5657 82.1458 13.9044 84.4462 13.9044C86.6202 13.9044 88.0818 15.4729 88.0818 17.7727C88.0818 20.1317 86.5753 21.7786 84.3213 21.7786ZM84.3854 15.1304C83.1735 15.1304 82.3971 16.2635 82.3971 17.8479C82.3971 19.4019 83.1895 20.535 84.3694 20.535C85.5492 20.535 86.3416 19.3235 86.3416 17.8159C86.3416 16.2795 85.5652 15.1304 84.3854 15.1304ZM100.661 14.0597L98.3001 21.6073H96.7616L95.7835 18.3296C95.5403 17.5279 95.3378 16.7144 95.1768 15.8922H95.1448C95.0215 16.7148 94.7878 17.539 94.5396 18.3296L93.4991 21.6073H91.9446L89.7226 14.0597H91.4468L92.3016 17.6479C92.5033 18.5025 92.673 19.3091 92.8139 20.0709H92.8459C92.9692 19.4355 93.1709 18.6417 93.4671 17.6639L94.5396 14.0613H95.9068L96.9329 17.587C97.1811 18.4417 97.3828 19.2803 97.5397 20.0725H97.5845C97.6933 19.2963 97.8646 18.4721 98.0968 17.587L99.0141 14.0613L100.661 14.0597ZM109.354 21.6073H107.676V17.2734C107.676 15.9386 107.164 15.2696 106.154 15.2696C105.16 15.2696 104.476 16.1242 104.476 17.1181V21.6073H102.799V16.2171C102.799 15.5497 102.782 14.8343 102.736 14.0581H104.212L104.291 15.2232H104.337C104.788 14.4166 105.704 13.9044 106.73 13.9044C108.315 13.9044 109.356 15.116 109.356 17.0877L109.354 21.6073ZM113.981 21.6073H112.301V10.5963H113.981V21.6073ZM120.097 21.7786C117.893 21.7786 116.462 20.1317 116.462 17.8959C116.462 15.5657 117.922 13.9044 120.221 13.9044C122.396 13.9044 123.856 15.4729 123.856 17.7727C123.858 20.1317 122.35 21.7786 120.097 21.7786ZM120.16 15.1304C118.948 15.1304 118.172 16.2635 118.172 17.8479C118.172 19.4019 118.966 20.535 120.142 20.535C121.324 20.535 122.115 19.3235 122.115 17.8159C122.116 16.2795 121.341 15.1304 120.16 15.1304ZM130.471 21.6073L130.349 20.7383H130.305C129.792 21.4377 129.045 21.7786 128.097 21.7786C126.744 21.7786 125.784 20.8311 125.784 19.5572C125.784 17.6943 127.399 16.7308 130.196 16.7308V16.5916C130.196 15.5977 129.669 15.1 128.628 15.1C127.884 15.1 127.231 15.2872 126.656 15.6601L126.315 14.5574C127.013 14.1221 127.884 13.9044 128.907 13.9044C130.879 13.9044 131.875 14.9447 131.875 17.0269V19.8068C131.875 20.5687 131.909 21.1592 131.984 21.6089L130.471 21.6073ZM130.241 17.8479C128.377 17.8479 127.442 18.2992 127.442 19.3699C127.442 20.1621 127.924 20.5495 128.593 20.5495C129.446 20.5495 130.241 19.8981 130.241 19.013V17.8479ZM140.022 21.6073L139.943 20.3958H139.897C139.415 21.3113 138.605 21.7786 137.473 21.7786C135.653 21.7786 134.305 20.1782 134.305 17.9263C134.305 15.5657 135.703 13.9028 137.611 13.9028C138.621 13.9028 139.337 14.2437 139.74 14.9287H139.774V10.5963H141.453V19.5732C141.453 20.303 141.471 20.9864 141.515 21.6073H140.022ZM139.774 17.1661C139.774 16.1098 139.074 15.2088 138.006 15.2088C136.762 15.2088 136.002 16.3115 136.002 17.8639C136.002 19.3859 136.791 20.4278 137.973 20.4278C139.028 20.4278 139.774 19.5108 139.774 18.4241V17.1661ZM152.1 21.7786C149.896 21.7786 148.466 20.1317 148.466 17.8959C148.466 15.5657 149.926 13.9044 152.225 13.9044C154.401 13.9044 155.861 15.4729 155.861 17.7727C155.862 20.1317 154.356 21.7786 152.1 21.7786ZM152.163 15.1304C150.952 15.1304 150.176 16.2635 150.176 17.8479C150.176 19.4019 150.969 20.535 152.147 20.535C153.328 20.535 154.119 19.3235 154.119 17.8159C154.122 16.2795 153.346 15.1304 152.163 15.1304ZM164.883 21.6073H163.204V17.2734C163.204 15.9386 162.692 15.2696 161.681 15.2696C160.687 15.2696 160.005 16.1242 160.005 17.1181V21.6073H158.326V16.2171C158.326 15.5497 158.31 14.8343 158.264 14.0581H159.74L159.818 15.2232H159.865C160.314 14.4166 161.232 13.9028 162.256 13.9028C163.841 13.9028 164.883 15.1144 164.883 17.0861V21.6073ZM176.171 15.3176H174.325V18.9826C174.325 19.9157 174.648 20.3814 175.302 20.3814C175.598 20.3814 175.846 20.3494 176.046 20.303L176.092 21.5769C175.767 21.7018 175.332 21.7642 174.791 21.7642C173.469 21.7642 172.678 21.0344 172.678 19.1235V15.3176H171.576V14.0597H172.678V12.6769L174.325 12.1791V14.0581H176.171V15.3176ZM185.052 21.6073H183.376V17.3054C183.376 15.9546 182.866 15.2712 181.854 15.2712C180.985 15.2712 180.175 15.8618 180.175 17.0573V21.6073H178.499V10.5963H180.175V15.1304H180.208C180.737 14.3077 181.502 13.9028 182.478 13.9028C184.076 13.9028 185.052 15.1448 185.052 17.1181V21.6073ZM194.152 18.2368H189.117C189.149 19.666 190.095 20.4726 191.496 20.4726C192.24 20.4726 192.926 20.3478 193.531 20.1157L193.792 21.2809C193.078 21.5913 192.237 21.7466 191.259 21.7466C188.898 21.7466 187.5 20.255 187.5 17.9423C187.5 15.6281 188.931 13.8884 191.07 13.8884C192.999 13.8884 194.209 15.3176 194.209 17.4766C194.22 17.7314 194.201 17.9866 194.152 18.2368ZM192.613 17.0413C192.613 15.8762 192.026 15.0535 190.953 15.0535C189.99 15.0535 189.228 15.8922 189.119 17.0413H192.613Z" fill="white"/>
<defs>
<linearGradient id="paint0_linear_1810_6007" x1="158.594" y1="64.2786" x2="158.594" y2="-166.536" gradientUnits="userSpaceOnUse">
<stop stop-color="#1A1A1A" stop-opacity="0.1"/>
<stop offset="0.123" stop-color="#212121" stop-opacity="0.151"/>
<stop offset="0.308" stop-color="#353535" stop-opacity="0.227"/>
<stop offset="0.532" stop-color="#575757" stop-opacity="0.318"/>
<stop offset="0.783" stop-color="#858585" stop-opacity="0.421"/>
<stop offset="1" stop-color="#B3B3B3" stop-opacity="0.51"/>
</linearGradient>
</defs>
</svg>
