<svg width="32" height="14" viewBox="0 0 32 14" fill="none" xmlns="http://www.w3.org/2000/svg">
<path d="M21.04 2.23932C20.0133 2.23932 19.1787 3.05932 19.1787 4.06599C19.1787 5.49932 19.72 6.80999 20.612 7.81665C20.9813 8.23265 21.4093 8.59532 21.8867 8.89265C22.3918 8.14317 22.7393 7.29878 22.908 6.41081C23.0767 5.52285 23.0631 4.60986 22.868 3.72732C22.8613 3.68865 22.8507 3.64999 22.8413 3.61132C22.7346 3.21615 22.5002 2.86735 22.1747 2.61921C21.8491 2.37107 21.4507 2.23751 21.0413 2.23932H21.04ZM9.55733 7.51665C9.74133 8.00465 9.98 8.46599 10.268 8.89265C10.7427 8.59532 11.172 8.23265 11.5413 7.81665C12.4645 6.78538 12.9753 5.45009 12.976 4.06599C12.976 3.05932 12.1413 2.23932 11.1133 2.23932C10.2467 2.23932 9.52 2.82332 9.31333 3.61132C9.30533 3.64999 9.29333 3.68732 9.28667 3.72599C9.00821 4.98931 9.10318 6.30635 9.56 7.51665H9.55733ZM30.2253 6.62332L32 7.49532C31.3385 8.77746 30.3356 9.85192 29.102 10.6001C27.8684 11.3483 26.4521 11.7412 25.0093 11.7353C24.1357 11.7353 23.268 11.5911 22.4413 11.3087C20.7505 12.9906 18.4609 13.932 16.076 13.926C14.895 13.929 13.725 13.6993 12.6328 13.25C11.5406 12.8007 10.5476 12.1405 9.71067 11.3073C8.88404 11.5901 8.01633 11.7343 7.14267 11.734C5.64071 11.7404 4.16863 11.3145 2.90212 10.5071C1.6356 9.69972 0.628153 8.54496 0 7.18065L1.816 6.38732C2.28434 7.40507 3.03553 8.26664 3.98 8.86925C4.92447 9.47186 6.02233 9.7901 7.14267 9.78599C7.57467 9.78599 7.99733 9.73799 8.404 9.64999C7.5786 8.29813 7.14257 6.74458 7.144 5.16065C7.14481 4.46231 7.22987 3.76662 7.39733 3.08865C7.83467 1.47799 9.33067 0.291322 11.112 0.291322L11.2173 0.293988C11.324 0.296655 11.4333 0.304655 11.54 0.315322C13.4653 0.524655 14.96 2.12465 14.96 4.06732C14.96 6.67799 13.628 8.98332 11.5973 10.366C12.8559 11.4114 14.4412 11.9823 16.0773 11.9793C17.7125 11.9813 19.2966 11.4105 20.5547 10.366C18.524 8.98332 17.192 6.67665 17.192 4.06732C17.192 2.12332 18.688 0.523322 20.6107 0.315322C20.7173 0.304655 20.824 0.296655 20.9333 0.293988L21.04 0.291322C21.9243 0.286297 22.7831 0.586938 23.4712 1.14236C24.1593 1.69779 24.6344 2.47389 24.816 3.33932C25.2817 5.50186 24.8999 7.76064 23.7493 9.64999C24.156 9.73799 24.576 9.78599 25.0093 9.78599C27.2893 9.78599 29.264 8.49665 30.2227 6.62332H30.2253Z" fill="#58CC02"/>
</svg>
