<svg width="216" height="65" viewBox="0 0 216 65" fill="none" xmlns="http://www.w3.org/2000/svg">
<path d="M207.838 64.1086H8.16092C3.76807 64.1086 0.173828 60.5086 0.173828 56.1087V8.10868C0.173828 3.70864 3.768 0.108643 8.16092 0.108643H207.838C212.231 0.108643 215.825 3.70864 215.825 8.10868V56.1086C215.825 60.5086 212.231 64.1086 207.838 64.1086" fill="black"/>
<path d="M207.838 0.108643H8.16092C3.76807 0.108643 0.173828 3.70864 0.173828 8.10868V56.1086C0.173828 60.5086 3.768 64.1086 8.16092 64.1086H207.838C212.231 64.1086 215.825 60.5086 215.825 56.1087V8.10868C215.825 3.70864 212.231 0.108643 207.838 0.108643H207.838ZM207.838 1.3886C211.538 1.3886 214.547 4.4037 214.547 8.10868V56.1086C214.547 59.8143 211.538 62.8293 207.838 62.8293H8.16092C4.46198 62.8293 1.45177 59.8142 1.45177 56.1087V8.10868C1.45177 4.4037 4.46191 1.38867 8.16092 1.38867H207.838" fill="#A6A6A6"/>
<path d="M75.9211 16.498C75.9211 17.8385 75.5248 18.906 74.7311 19.7023C73.8294 20.6492 72.6544 21.123 71.2098 21.123C69.8264 21.123 68.6502 20.643 67.683 19.6817C66.714 18.7211 66.2305 17.5298 66.2305 16.1086C66.2305 14.6867 66.714 13.4962 67.683 12.5348C68.6502 11.5742 69.8264 11.0935 71.2098 11.0935C71.8962 11.0935 72.5534 11.228 73.1773 11.4961C73.8013 11.7649 74.3018 12.1217 74.6762 12.5686L73.8337 13.4129C73.1992 12.6535 72.3256 12.2742 71.2098 12.2742C70.2009 12.2742 69.3285 12.6292 68.5923 13.3398C67.8559 14.0511 67.4878 14.9736 67.4878 16.1086C67.4878 17.2436 67.8559 18.166 68.5923 18.8774C69.3285 19.588 70.2009 19.943 71.2098 19.943C72.2801 19.943 73.1724 19.586 73.8868 18.8711C74.3505 18.4054 74.6187 17.758 74.6904 16.9267H71.2097V15.7736H75.8543C75.8991 16.0243 75.921 16.2649 75.921 16.498" fill="white"/>
<path d="M75.9206 16.4981H75.7608C75.7595 17.8081 75.3776 18.8255 74.6175 19.5893L74.6158 19.5906L74.6151 19.5919C73.7422 20.5061 72.62 20.9611 71.2092 20.9631C69.8628 20.9611 68.7358 20.5012 67.7947 19.5686C66.8558 18.6343 66.3915 17.4936 66.3897 16.1087C66.3915 14.7231 66.8558 13.583 67.7947 12.6493C68.7358 11.7162 69.8628 11.2555 71.2092 11.2536C71.8751 11.2536 72.5091 11.3837 73.1137 11.643C73.7189 11.9044 74.1971 12.2468 74.5533 12.6719L74.6756 12.5686L74.5627 12.4555L73.7202 13.3004L73.8331 13.413L73.9562 13.3106C73.2921 12.5136 72.36 12.1119 71.2093 12.1143C70.1629 12.113 69.2425 12.4875 68.4812 13.225C67.7125 13.9649 67.3263 14.9393 67.3275 16.1087C67.3263 17.2781 67.7125 18.2524 68.4812 18.9924C69.2425 19.7299 70.1629 20.1044 71.2092 20.1031C72.3149 20.105 73.2573 19.7293 73.9992 18.9843C74.4946 18.4867 74.7755 17.7975 74.8491 16.9405L74.864 16.7668H71.369V15.9336H75.8537V15.7736L75.6964 15.8018C75.7401 16.0444 75.7608 16.2749 75.7608 16.4981H76.0802C76.0802 16.2549 76.0577 16.005 76.0109 15.745L75.9873 15.6136H71.0496V17.0868H74.6899V16.9268L74.5308 16.913C74.4604 17.7181 74.2045 18.3244 73.7733 18.7582C73.0869 19.4431 72.2445 19.7811 71.2093 19.7831C70.2378 19.7818 69.4135 19.4468 68.7028 18.7624C67.999 18.0805 67.6488 17.2099 67.647 16.1087C67.6488 15.0074 67.999 14.1368 68.7028 13.4549C69.4135 12.7706 70.2377 12.4355 71.2093 12.4342C72.2895 12.4368 73.1051 12.7943 73.711 13.5162L73.8233 13.6499L74.7886 12.6818L74.8922 12.5781L74.7979 12.4661C74.4054 11.9975 73.8825 11.6255 73.2398 11.3494C72.5959 11.0724 71.9163 10.9336 71.2093 10.9336C69.7892 10.9324 68.5636 11.4323 67.5696 12.4218C66.5719 13.4093 66.0689 14.6506 66.0703 16.1087C66.0689 17.5661 66.5719 18.8081 67.5702 19.7962C68.5636 20.785 69.7892 21.2844 71.2093 21.2831C72.6882 21.2844 73.915 20.7924 74.846 19.813L74.7305 19.7024L74.8434 19.8156C75.6709 18.9874 76.0814 17.8687 76.0803 16.4981H75.9205H75.9206ZM83.2835 12.488H78.9187V15.5319H82.855V16.6854H78.9187V19.7293H83.2835V20.9087H77.6883V11.3087H83.2835V12.488Z" fill="white"/>
<path d="M83.2843 12.488V12.328H78.7598V15.6919H82.696V16.525L78.7597 16.5254V19.8893H83.1245V20.7487H77.8488V11.4687H83.1245V12.488H83.2843V12.328V12.488H83.444V11.1487H77.5293V21.0687H83.444V19.5693H79.0792V16.8454H83.0154V15.3719H79.0792V12.648H83.444V12.488H83.2843ZM88.4778 20.9087H87.2454V12.488H84.5684V11.3086H91.1548V12.488H88.4778V20.9086" fill="white"/>
<path d="M88.4773 20.9087V20.7487H87.4046V12.328H84.7277V11.4687H90.9945V12.328H88.3175V20.9087H88.4773V20.7487V20.9087H88.637V12.648H91.3139V11.1487H84.4082V12.648H87.0851V21.0686H88.637V20.9086H88.4773V20.9087ZM95.9196 20.9087V11.3086H97.1508V20.9086H95.9196" fill="white"/>
<path d="M95.9195 20.9087H96.0793V11.4687H96.9908V20.7487H95.9195V20.9087H96.0793H95.9195V21.0687H97.3103V11.1487H95.7598V21.0687H95.9195V20.9087V20.9087ZM102.614 20.9087H101.381V12.488H98.7044V11.3086H105.291V12.488H102.614V20.9086" fill="white"/>
<path d="M102.614 20.9086V20.7486H101.541V12.3279H98.8644V11.4686H105.131V12.3279H102.454V20.9086H102.614V20.7486V20.9086H102.774V12.6479H105.451V11.1486H98.5449V12.6479H101.222V21.0685H102.774V20.9085H102.614V20.9086ZM111.641 18.8643C112.35 19.5836 113.218 19.9429 114.244 19.9429C115.271 19.9429 116.139 19.5836 116.848 18.8643C117.558 18.1449 117.914 17.2254 117.914 16.1086C117.914 14.9918 117.558 14.0723 116.848 13.3529C116.139 12.6336 115.271 12.2742 114.244 12.2742C113.218 12.2742 112.35 12.6336 111.641 13.3529C110.932 14.0723 110.577 14.9918 110.577 16.1086C110.577 17.2254 110.932 18.1449 111.641 18.8643ZM117.759 19.6679C116.816 20.6385 115.645 21.123 114.244 21.123C112.843 21.123 111.672 20.6385 110.731 19.6679C109.789 18.6985 109.319 17.5118 109.319 16.1086C109.319 14.7054 109.789 13.5185 110.731 12.5492C111.672 11.5785 112.843 11.0935 114.244 11.0935C115.637 11.0935 116.806 11.581 117.753 12.5555C118.698 13.5298 119.171 14.7141 119.171 16.1086C119.171 17.5118 118.699 18.6985 117.759 19.6679Z" fill="white"/>
<path d="M111.641 18.8644L111.528 18.9769C112.263 19.725 113.181 20.105 114.245 20.1031C115.308 20.105 116.227 19.725 116.962 18.9769C117.703 18.228 118.075 17.2593 118.074 16.1087C118.075 14.9581 117.703 13.9893 116.962 13.2405C116.227 12.4923 115.308 12.1124 114.245 12.1143C113.181 12.1124 112.263 12.4923 111.528 13.2405C110.789 13.9893 110.416 14.9581 110.417 16.1087C110.416 17.2592 110.789 18.228 111.528 18.9769L111.641 18.8644L111.755 18.7519C111.077 18.0612 110.738 17.1924 110.737 16.1087C110.738 15.025 111.077 14.1562 111.755 13.4655C112.439 12.7749 113.255 12.4362 114.245 12.4343C115.234 12.4362 116.053 12.7749 116.735 13.4655C117.414 14.1562 117.752 15.025 117.754 16.1087C117.752 17.1923 117.414 18.0612 116.735 18.7519C116.053 19.4425 115.234 19.7811 114.245 19.783C113.255 19.7811 112.439 19.4425 111.755 18.7519L111.641 18.8644ZM117.759 19.668L117.645 19.5569C116.729 20.4968 115.609 20.9612 114.245 20.9631C112.88 20.9611 111.76 20.4968 110.846 19.5569L110.842 19.5518L110.846 19.5569C109.932 18.6136 109.481 17.4762 109.48 16.1087C109.481 14.7411 109.932 13.6037 110.846 12.6605C111.76 11.7205 112.88 11.2555 114.245 11.2537C115.6 11.2555 116.718 11.7224 117.639 12.6674C118.556 13.6149 119.01 14.7505 119.012 16.1087C119.01 17.4762 118.557 18.6136 117.645 19.5569L117.759 19.668L117.874 19.7792C118.843 18.7831 119.332 17.5474 119.331 16.1087C119.332 14.6781 118.841 13.445 117.868 12.4444C116.894 11.4398 115.675 10.9319 114.245 10.9336C112.807 10.9319 111.584 11.4375 110.617 12.4381V12.4374C109.647 13.4343 109.159 14.6699 109.16 16.1087C109.159 17.5474 109.647 18.7831 110.617 19.7798L110.621 19.7844L110.617 19.7792C111.584 20.7799 112.807 21.2844 114.245 21.2831C115.682 21.2844 116.905 20.7799 117.874 19.7792L117.759 19.668ZM120.9 20.9087V11.3086H122.399L127.057 18.7767H127.11L127.057 16.9267V11.3086H128.289V20.9086H127.004L122.13 13.0785H122.077L122.13 14.9292V20.9086H120.9" fill="white"/>
<path d="M120.899 20.9087H121.059V11.4687H122.309L126.967 18.9368H127.273L127.216 16.9244V11.4687H128.129V20.7487H127.091L122.218 12.9186H121.912L121.97 14.9319V20.7487H120.899V20.9087H121.059H120.899V21.0687H122.289V14.9268L122.236 13.0743L122.076 13.0786V13.2386H122.129V13.0786L121.994 13.1637L126.914 21.0687H128.448V11.1487H126.896V16.9286L126.949 18.7811L127.109 18.7768V18.6168H127.056V18.7768L127.191 18.6919L122.486 11.1487H120.739V21.0687H120.899V20.9087L120.899 20.9087ZM170.995 48.1087H173.976V28.1068H170.995L170.995 48.1087ZM197.843 35.3119L194.426 43.9837H194.324L190.777 35.3119H187.566L192.884 47.4324L189.852 54.1743H192.963L201.157 35.3119L197.843 35.3119ZM180.939 45.8369C179.961 45.8369 178.6 45.3481 178.6 44.1381C178.6 42.5943 180.297 42.0025 181.76 42.0025C183.071 42.0025 183.686 42.2855 184.484 42.6719C184.252 44.5243 182.659 45.8369 180.939 45.8369ZM181.298 34.8743C179.14 34.8743 176.905 35.8267 175.98 37.9369L178.626 39.0431C179.191 37.9369 180.244 37.5762 181.349 37.5762C182.891 37.5762 184.458 38.5031 184.484 40.15V40.3556C183.944 40.0468 182.789 39.5837 181.375 39.5837C178.524 39.5837 175.619 41.153 175.619 44.0868C175.619 46.7631 177.958 48.4874 180.578 48.4874C182.583 48.4874 183.686 47.5868 184.381 46.5319H184.484V48.0756H187.36V40.4068C187.36 36.8562 184.715 34.8743 181.298 34.8743ZM162.877 37.7467H158.637V30.8906H162.877C165.105 30.8906 166.37 32.7387 166.37 34.3186C166.37 35.8687 165.105 37.7467 162.877 37.7467ZM162.8 28.1068H155.658V48.1087H158.637V40.5306H162.8C166.104 40.5306 169.351 38.1349 169.351 34.3186C169.351 30.5025 166.104 28.1068 162.8 28.1068ZM123.854 45.8406C121.794 45.8406 120.07 44.1137 120.07 41.7418C120.07 39.345 121.794 37.5919 123.854 37.5919C125.887 37.5919 127.482 39.345 127.482 41.7418C127.482 44.1137 125.887 45.8406 123.854 45.8406H123.854ZM127.276 36.4319H127.173C126.504 35.633 125.217 34.9113 123.596 34.9113C120.199 34.9113 117.085 37.9012 117.085 41.7418C117.085 45.5569 120.199 48.5212 123.596 48.5212C125.217 48.5212 126.504 47.7993 127.173 46.9749H127.276V47.9543C127.276 50.5581 125.887 51.95 123.648 51.95C121.82 51.95 120.688 50.6349 120.224 49.5268L117.626 50.6093C118.372 52.4136 120.354 54.6306 123.648 54.6306C127.148 54.6306 130.107 52.568 130.107 47.5418V35.3237H127.276V36.4319ZM132.166 48.1087H135.151V28.1061H132.166V48.1087ZM139.552 41.51C139.475 38.8805 141.585 37.5405 143.103 37.5405C144.288 37.5405 145.291 38.133 145.625 38.9844L139.552 41.51ZM148.816 39.2418C148.251 37.7205 146.526 34.9113 143 34.9113C139.5 34.9113 136.592 37.6693 136.592 41.7162C136.592 45.5313 139.475 48.5212 143.335 48.5212C146.449 48.5212 148.251 46.6136 148.997 45.5055L146.681 43.9586C145.909 45.093 144.853 45.8406 143.335 45.8406C141.816 45.8406 140.736 45.1443 140.04 43.7786L149.125 40.0149L148.816 39.2418ZM76.4403 36.9993V39.8861H83.3371C83.1313 41.51 82.5908 42.6956 81.7672 43.5205C80.7638 44.5261 79.1939 45.6343 76.4402 45.6343C72.1939 45.6343 68.8743 42.2061 68.8743 37.953C68.8743 33.6999 72.1939 30.2713 76.4403 30.2713C78.7309 30.2713 80.4031 31.1737 81.6386 32.3336L83.6716 30.2975C81.9476 28.6474 79.6569 27.3844 76.4403 27.3844C70.624 27.3844 65.7344 32.1274 65.7344 37.953C65.7344 43.7786 70.624 48.5212 76.4403 48.5212C79.5802 48.5212 81.9476 47.4906 83.8002 45.5569C85.7047 43.6493 86.2969 40.9687 86.2969 38.8037C86.2969 38.133 86.2456 37.5149 86.142 36.9993H76.4403ZM94.1379 45.8406C92.0787 45.8406 90.3028 44.1392 90.3028 41.7162C90.3028 39.2674 92.0787 37.5919 94.1379 37.5919C96.1963 37.5919 97.9722 39.2674 97.9722 41.7162C97.9722 44.1393 96.1963 45.8406 94.1379 45.8406ZM94.1379 34.9113C90.3801 34.9113 87.3176 37.7723 87.3176 41.7162C87.3176 45.6343 90.3801 48.5212 94.1379 48.5212C97.8949 48.5212 100.957 45.6343 100.957 41.7162C100.957 37.7723 97.8949 34.9113 94.1379 34.9113ZM109.015 45.8406C106.957 45.8406 105.181 44.1392 105.181 41.7162C105.181 39.2674 106.957 37.5919 109.015 37.5919C111.074 37.5919 112.849 39.2674 112.849 41.7162C112.849 44.1393 111.074 45.8406 109.015 45.8406H109.015ZM109.015 34.9113C105.257 34.9113 102.195 37.7723 102.195 41.7162C102.195 45.6343 105.257 48.5212 109.015 48.5212C112.772 48.5212 115.835 45.6343 115.835 41.7162C115.835 37.7723 112.772 34.9113 109.015 34.9113H109.015Z" fill="white"/>
<path d="M16.9596 12.2867C16.4235 12.7712 16.1035 13.5792 16.1035 14.6518V14.4093V49.8031V49.5699C16.1035 50.5605 16.378 51.3254 16.8428 51.8181L16.9614 51.9318V51.9323C17.3377 52.2724 17.8201 52.4529 18.373 52.4524C18.9132 52.4524 19.5211 52.2799 20.1626 51.9156L43.3494 38.7199L51.3139 34.1868C52.3254 33.6112 52.8933 32.8687 52.9882 32.1124V32.1093C52.8933 31.3512 52.3254 30.6093 51.314 30.0337L43.3488 25.5011L20.1626 12.3054C19.5198 11.9405 18.9115 11.7673 18.3698 11.7673C17.8176 11.7673 17.3358 11.9473 16.9597 12.2867H16.9596Z" fill="#00C1FF"/>
<path d="M16.9615 51.9319L16.8428 51.8181C16.378 51.3256 16.1035 50.5605 16.1035 49.57V49.8031V14.4181V14.6518C16.1035 13.5793 16.4235 12.7712 16.9596 12.2868L36.7513 32.11L16.9615 51.9319Z" fill="url(#paint0_linear_1810_6018)"/>
<path d="M43.3501 38.7198L36.752 32.1099L43.3495 25.5011L51.3147 30.0336C52.3261 30.6093 52.894 31.3512 52.9889 32.1093V32.1123C52.894 32.8686 52.3261 33.6112 51.3147 34.1867L43.3501 38.7198" fill="url(#paint1_linear_1810_6018)"/>
<path d="M18.3743 52.4524C17.8215 52.4529 17.339 52.2723 16.9629 51.9323V51.9318L36.7526 32.1099L43.3508 38.7198L20.1639 51.9155C19.5224 52.2799 18.9145 52.4524 18.3743 52.4524Z" fill="url(#paint2_linear_1810_6018)"/>
<path d="M36.7527 32.11L16.9609 12.2868C17.3372 11.9474 17.8189 11.7674 18.3711 11.7674C18.9128 11.7674 19.5211 11.9405 20.1639 12.3055L43.3502 25.5012L36.7526 32.11" fill="url(#paint3_linear_1810_6018)"/>
<path d="M18.3745 52.6868C17.8216 52.6868 17.3385 52.5061 16.9623 52.1662L16.9617 52.1667C16.9601 52.1652 16.9585 52.1637 16.9567 52.1624L16.8538 52.0617C16.8506 52.0586 16.8476 52.0549 16.8438 52.0512L16.9624 51.9324C17.3386 52.2724 17.821 52.453 18.3739 52.4523C18.9141 52.4523 19.522 52.2799 20.1634 51.9156L43.3503 38.7199L43.4988 38.8687L43.3484 38.9543L20.1634 52.1493C19.5788 52.4812 19.0227 52.6543 18.5204 52.6831C18.4718 52.6855 18.4231 52.6867 18.3745 52.6867" fill="url(#paint4_linear_1810_6018)"/>
<path d="M16.8428 52.0511C16.378 51.5586 16.1035 50.7942 16.1035 49.803V49.5699C16.1035 50.5604 16.378 51.3254 16.8428 51.818L16.9614 51.9318L16.8428 52.0511Z" fill="url(#paint5_linear_1810_6018)"/>
<path d="M43.4982 38.8686L43.3496 38.7197L51.3141 34.1867C52.3257 33.6112 52.8935 32.8686 52.9884 32.1123C52.9884 32.3898 52.9266 32.6673 52.8038 32.9374C52.556 33.4817 52.0594 33.9961 51.3142 34.4204L43.4982 38.8687" fill="url(#paint6_linear_1810_6018)"/>
<path d="M52.9891 32.1094C52.8942 31.3513 52.3263 30.6094 51.3148 30.0337L43.3496 25.5012L43.4982 25.3523H43.4988L51.3148 29.8006C52.43 30.4356 52.9884 31.2724 52.9891 32.1094Z" fill="url(#paint7_linear_1810_6018)"/>
<path d="M16.1035 14.6519V14.4074C16.1035 14.3192 16.1059 14.233 16.1104 14.1493V14.1455C16.1104 14.1443 16.1104 14.1431 16.1109 14.1418V14.1324C16.159 13.2792 16.4235 12.6137 16.8428 12.1693L16.9596 12.2867C16.4235 12.7712 16.1035 13.5793 16.1035 14.6519Z" fill="url(#paint8_linear_1810_6018)"/>
<path d="M43.3496 25.5012L20.1634 12.3054C19.5207 11.9405 18.9124 11.7674 18.3707 11.7674C17.8185 11.7674 17.3367 11.9474 16.9605 12.2868L16.8438 12.1693C16.8802 12.1306 16.9181 12.0933 16.9574 12.0575C16.9586 12.0562 16.9605 12.0549 16.9618 12.0537C17.335 11.7168 17.8116 11.5369 18.3589 11.5336H18.3707C18.9124 11.5336 19.5207 11.7068 20.1634 12.0719L43.4988 25.3519L43.4982 25.3524L43.3496 25.5012Z" fill="url(#paint9_linear_1810_6018)"/>
<defs>
<linearGradient id="paint0_linear_1810_6018" x1="28.7516" y1="14.0441" x2="11.6956" y2="31.1276" gradientUnits="userSpaceOnUse">
<stop stop-color="#00A0FF"/>
<stop offset="0.00657" stop-color="#00A1FF"/>
<stop offset="0.2601" stop-color="#00BEFF"/>
<stop offset="0.5122" stop-color="#00D2FF"/>
<stop offset="0.7604" stop-color="#00DFFF"/>
<stop offset="1" stop-color="#00E3FF"/>
</linearGradient>
<linearGradient id="paint1_linear_1810_6018" x1="54.2213" y1="31.9957" x2="15.5686" y2="31.9957" gradientUnits="userSpaceOnUse">
<stop stop-color="#FFE000"/>
<stop offset="0.4087" stop-color="#FFBD00"/>
<stop offset="0.7754" stop-color="#FFA500"/>
<stop offset="1" stop-color="#FF9C00"/>
</linearGradient>
<linearGradient id="paint2_linear_1810_6018" x1="39.8477" y1="38.3943" x2="10.9451" y2="67.1321" gradientUnits="userSpaceOnUse">
<stop stop-color="#FF3A44"/>
<stop offset="1" stop-color="#C31162"/>
</linearGradient>
<linearGradient id="paint3_linear_1810_6018" x1="11.86" y1="9.34791" x2="24.7413" y2="22.1754" gradientUnits="userSpaceOnUse">
<stop stop-color="#32A071"/>
<stop offset="0.0685" stop-color="#2DA771"/>
<stop offset="0.4762" stop-color="#15CF74"/>
<stop offset="0.8009" stop-color="#06E775"/>
<stop offset="1" stop-color="#00F076"/>
</linearGradient>
<linearGradient id="paint4_linear_1810_6018" x1="39.8329" y1="42.9794" x2="16.6862" y2="66.1636" gradientUnits="userSpaceOnUse">
<stop stop-color="#CC2E36"/>
<stop offset="1" stop-color="#9C0E4E"/>
</linearGradient>
<linearGradient id="paint5_linear_1810_6018" x1="18.7401" y1="14.044" x2="3.71396" y2="29.0945" gradientUnits="userSpaceOnUse">
<stop stop-color="#008DE0"/>
<stop offset="0.00657" stop-color="#008DE0"/>
<stop offset="0.2601" stop-color="#00A7E0"/>
<stop offset="0.5122" stop-color="#00B8E0"/>
<stop offset="0.7604" stop-color="#00C4E0"/>
<stop offset="1" stop-color="#00C7E0"/>
</linearGradient>
<linearGradient id="paint6_linear_1810_6018" x1="54.2209" y1="32.1108" x2="15.5681" y2="32.1108" gradientUnits="userSpaceOnUse">
<stop stop-color="#E0C500"/>
<stop offset="0.4087" stop-color="#E0A600"/>
<stop offset="0.7754" stop-color="#E09100"/>
<stop offset="1" stop-color="#E08900"/>
</linearGradient>
<linearGradient id="paint7_linear_1810_6018" x1="54.2215" y1="32.111" x2="15.5689" y2="32.111" gradientUnits="userSpaceOnUse">
<stop stop-color="#FFE840"/>
<stop offset="0.4087" stop-color="#FFCE40"/>
<stop offset="0.7754" stop-color="#FFBC40"/>
<stop offset="1" stop-color="#FFB540"/>
</linearGradient>
<linearGradient id="paint8_linear_1810_6018" x1="18.7238" y1="14.0713" x2="4.25097" y2="27.9395" gradientUnits="userSpaceOnUse">
<stop stop-color="#40B8FF"/>
<stop offset="0.00657" stop-color="#40B9FF"/>
<stop offset="0.2601" stop-color="#40CEFF"/>
<stop offset="0.5122" stop-color="#40DDFF"/>
<stop offset="0.7604" stop-color="#40E7FF"/>
<stop offset="1" stop-color="#40EAFF"/>
</linearGradient>
<linearGradient id="paint9_linear_1810_6018" x1="11.8307" y1="13.5401" x2="22.1668" y2="23.893" gradientUnits="userSpaceOnUse">
<stop stop-color="#65B895"/>
<stop offset="0.0685" stop-color="#62BD95"/>
<stop offset="0.4762" stop-color="#50DB97"/>
<stop offset="0.8009" stop-color="#44ED98"/>
<stop offset="1" stop-color="#40F498"/>
</linearGradient>
</defs>
</svg>
