<svg width="48" height="48" viewBox="0 0 48 48" fill="current" stroke="current" xmlns="http://www.w3.org/2000/svg">
<path d="M45 22.5H42V10.5H19.5V7.5H42C42.7954 7.50079 43.558 7.81712 44.1204 8.37956C44.6829 8.94199 44.9992 9.70459 45 10.5V22.5Z" fill="white" fill-opacity="0.3"/>
<path d="M37.5 30H34.5V18H12V15H34.5C35.2954 15.0008 36.058 15.3171 36.6204 15.8796C37.1829 16.442 37.4992 17.2046 37.5 18V30Z" fill="white" fill-opacity="0.3"/>
<path d="M27 40.5H6C5.20459 40.4992 4.44199 40.1829 3.87956 39.6204C3.31712 39.058 3.00079 38.2954 3 37.5V25.5C3.00079 24.7046 3.31712 23.942 3.87956 23.3796C4.44199 22.8171 5.20459 22.5008 6 22.5H27C27.7954 22.5008 28.558 22.8171 29.1204 23.3796C29.6829 23.942 29.9992 24.7046 30 25.5V37.5C29.9992 38.2954 29.6829 39.058 29.1204 39.6204C28.558 40.1829 27.7954 40.4992 27 40.5ZM6 25.5V37.5H27.0015L27 25.5H6Z" fill="white" fill-opacity="0.3"/>
</svg>
