<svg width="20" height="20" viewBox="0 0 20 20" fill="current" xmlns="http://www.w3.org/2000/svg">
<path d="M10.0001 5.12706C7.33996 5.12706 5.19308 7.27394 5.19308 9.93409C5.19308 12.5942 7.33996 14.7411 10.0001 14.7411C12.6603 14.7411 14.8072 12.5942 14.8072 9.93409C14.8072 7.27394 12.6603 5.12706 10.0001 5.12706ZM10.0001 13.0583C8.2798 13.0583 6.8759 11.6544 6.8759 9.93409C6.8759 8.21378 8.2798 6.80987 10.0001 6.80987C11.7204 6.80987 13.1243 8.21378 13.1243 9.93409C13.1243 11.6544 11.7204 13.0583 10.0001 13.0583ZM15.004 3.80988C14.3829 3.80988 13.8814 4.31144 13.8814 4.93253C13.8814 5.55362 14.3829 6.05519 15.004 6.05519C15.6251 6.05519 16.1267 5.55597 16.1267 4.93253C16.1269 4.78505 16.098 4.63898 16.0416 4.50269C15.9853 4.3664 15.9026 4.24257 15.7983 4.13828C15.694 4.034 15.5702 3.95131 15.4339 3.89496C15.2976 3.8386 15.1515 3.80969 15.004 3.80988ZM19.3704 9.93409C19.3704 8.64034 19.3822 7.35831 19.3095 6.06691C19.2368 4.56691 18.8947 3.23566 17.7978 2.13878C16.6986 1.03956 15.3697 0.69972 13.8697 0.627064C12.5759 0.554408 11.2939 0.566127 10.0025 0.566127C8.70871 0.566127 7.42668 0.554408 6.13527 0.627064C4.63527 0.69972 3.30402 1.04191 2.20714 2.13878C1.10792 3.238 0.76808 4.56691 0.695424 6.06691C0.622767 7.36066 0.634486 8.64269 0.634486 9.93409C0.634486 11.2255 0.622767 12.5099 0.695424 13.8013C0.76808 15.3013 1.11027 16.6325 2.20714 17.7294C3.30636 18.8286 4.63527 19.1685 6.13527 19.2411C7.42902 19.3138 8.71105 19.3021 10.0025 19.3021C11.2962 19.3021 12.5782 19.3138 13.8697 19.2411C15.3697 19.1685 16.7009 18.8263 17.7978 17.7294C18.897 16.6302 19.2368 15.3013 19.3095 13.8013C19.3845 12.5099 19.3704 11.2278 19.3704 9.93409ZM17.3079 15.4607C17.1368 15.8872 16.9306 16.206 16.6001 16.5341C16.2697 16.8646 15.9532 17.0708 15.5267 17.2419C14.2939 17.7317 11.3665 17.6216 10.0001 17.6216C8.63371 17.6216 5.70402 17.7317 4.47121 17.2442C4.04465 17.0732 3.72589 16.8669 3.39777 16.5364C3.0673 16.206 2.86105 15.8896 2.68996 15.463C2.20246 14.2278 2.31261 11.3005 2.31261 9.93409C2.31261 8.56769 2.20246 5.638 2.68996 4.40519C2.86105 3.97863 3.0673 3.65988 3.39777 3.33175C3.72824 3.00363 4.04465 2.79503 4.47121 2.62394C5.70402 2.13644 8.63371 2.24659 10.0001 2.24659C11.3665 2.24659 14.2962 2.13644 15.529 2.62394C15.9556 2.79503 16.2743 3.00128 16.6025 3.33175C16.9329 3.66222 17.1392 3.97863 17.3103 4.40519C17.7978 5.638 17.6876 8.56769 17.6876 9.93409C17.6876 11.3005 17.7978 14.2278 17.3079 15.4607Z" fill="current"/>
</svg>
