<svg width="20" height="21" viewBox="0 0 20 21" fill="current" xmlns="http://www.w3.org/2000/svg">
<path fill-rule="evenodd" clip-rule="evenodd" d="M7.429 7.90308H11.143V9.75308C11.678 8.68908 13.05 7.73308 15.111 7.73308C19.062 7.73308 20 9.85108 20 13.7371V20.9341H16V14.6221C16 12.4091 15.465 11.1611 14.103 11.1611C12.214 11.1611 11.429 12.5061 11.429 14.6211V20.9341H7.429V7.90308V7.90308ZM0.57 20.7641H4.57V7.73308H0.57V20.7641V20.7641ZM5.143 3.48408C5.14315 3.81936 5.07666 4.15132 4.94739 4.46067C4.81812 4.77002 4.62865 5.0506 4.39 5.28608C3.9064 5.76671 3.25181 6.03574 2.57 6.03408C1.88939 6.03363 1.23631 5.76528 0.752 5.28708C0.514211 5.05079 0.325386 4.76991 0.196344 4.46051C0.0673015 4.15112 0.000579132 3.81931 0 3.48408C0 2.80708 0.27 2.15908 0.753 1.68108C1.23689 1.20224 1.89024 0.933783 2.571 0.934082C3.253 0.934082 3.907 1.20308 4.39 1.68108C4.872 2.15908 5.143 2.80708 5.143 3.48408Z" fill="current"/>
</svg>
