<svg width="45" height="48" viewBox="0 0 45 48" fill="none" xmlns="http://www.w3.org/2000/svg">
<path d="M16.9353 25.767L7.75446 34.8308C7.19108 35.387 7.19108 36.2888 7.75446 36.845C8.31784 37.4012 9.23126 37.4012 9.79464 36.845L18.9754 27.7812C19.5388 27.225 19.5388 26.3232 18.9754 25.767C18.4121 25.2108 17.4986 25.2108 16.9353 25.767Z" fill="#AAC1D4"/>
<path d="M11.9687 28.7619L6.8683 33.7973C5.74154 34.9097 5.74154 36.7133 6.8683 37.8257C7.99506 38.9381 9.8219 38.9381 10.9487 37.8257L16.0491 32.7902C17.1759 31.6778 17.1759 29.8743 16.0491 28.7619C14.9223 27.6495 13.0955 27.6495 11.9687 28.7619Z" fill="#CD7900"/>
<path d="M34.7186 24.3617C38.1337 19.5465 36.9483 12.9097 32.071 9.5381C27.1936 6.16644 20.4713 7.33668 17.0561 12.1519C13.641 16.9671 14.8263 23.6038 19.7036 26.9755C24.5809 30.3471 31.3034 29.1769 34.7186 24.3617Z" fill="#DDF4FF"/>
<g opacity="0.56">
<mask id="mask0_188_5989" style="mask-type:alpha" maskUnits="userSpaceOnUse" x="15" y="7" width="22" height="22">
<g opacity="0.56">
<path opacity="0.56" d="M34.7186 24.3617C38.1337 19.5465 36.9483 12.9097 32.071 9.5381C27.1936 6.16644 20.4713 7.33668 17.0561 12.1519C13.641 16.9671 14.8263 23.6038 19.7036 26.9755C24.5809 30.3471 31.3034 29.1769 34.7186 24.3617Z" fill="#DDF4FF"/>
</g>
</mask>
<g mask="url(#mask0_188_5989)">
<g opacity="0.56">
<path opacity="0.56" fill-rule="evenodd" clip-rule="evenodd" d="M21.0225 14.8199C20.0366 15.7932 20.0366 17.3713 21.0225 18.3447C22.0084 19.318 23.6068 19.318 24.5928 18.3447L34.2836 8.77731C35.2695 7.80391 35.2695 6.22583 34.2836 5.25248C33.2977 4.27912 31.6992 4.27912 30.7133 5.25248L21.0225 14.8199ZM18.1457 27.6408C17.1598 28.6142 17.1598 30.1923 18.1457 31.1656C19.1316 32.139 20.7301 32.139 21.716 31.1656L30.8968 22.1018C31.8827 21.1285 31.8827 19.5504 30.8968 18.577C29.9109 17.6036 28.3124 17.6036 27.3265 18.577L18.1457 27.6408Z" fill="white"/>
</g>
</g>
</g>
<path d="M34.7186 24.3598C38.1337 19.5445 36.9484 12.9078 32.071 9.53611C27.1937 6.16449 20.4713 7.33474 17.0561 12.1499C13.6409 16.9652 14.8263 23.6019 19.7036 26.9735C24.581 30.3452 31.3034 29.175 34.7186 24.3598Z" stroke="#C2D1DD" stroke-width="6"/>
</svg>
