<svg width="44" height="40" viewBox="0 0 44 40" fill="none" xmlns="http://www.w3.org/2000/svg">
<g clip-path="url(#clip0_188_5971)">
<path fill-rule="evenodd" clip-rule="evenodd" d="M3.43968 13.9395H40.6008C40.9796 13.9395 41.2866 14.2432 41.2866 14.618V35.6104C41.2866 37.4841 39.7515 39.003 37.8577 39.003H6.1828C4.28908 39.003 2.75391 37.4841 2.75391 35.6104V14.618C2.75391 14.2432 3.06094 13.9395 3.43968 13.9395Z" fill="#2B70C9"/>
<path fill-rule="evenodd" clip-rule="evenodd" d="M2.75391 12.8701H41.2866V18.2778H2.75391V12.8701Z" fill="#235390"/>
<path fill-rule="evenodd" clip-rule="evenodd" d="M22.885 8.36638V8.57276L9.7325 9.16513C9.26646 9.18612 8.84451 8.89416 8.7045 8.45385L7.48806 4.62836C7.08388 3.35727 7.79765 2.00266 9.08232 1.60274C9.58134 1.44739 10.1177 1.45496 10.612 1.62432L21.6027 5.38957L33.4237 1.33983C33.9182 1.17047 34.4544 1.16291 34.9535 1.31825C36.2382 1.71817 36.9519 3.07279 36.5478 4.34388L35.3313 8.16936C35.1913 8.60967 34.7693 8.90163 34.3033 8.88064L22.885 8.36638Z" fill="#B3D3FD"/>
<path fill-rule="evenodd" clip-rule="evenodd" d="M19.412 2.16699H24.6286C25.9542 2.16699 27.0288 3.23025 27.0288 4.54185V7.742C27.0288 9.05359 25.9542 10.1168 24.6286 10.1168H19.412C18.0864 10.1168 17.0117 9.05359 17.0117 7.742V4.54185C17.0117 3.23025 18.0864 2.16699 19.412 2.16699Z" fill="#86BAFF"/>
<path fill-rule="evenodd" clip-rule="evenodd" d="M17.418 14.8623H26.6229V39.0031H17.418V14.8623Z" fill="#B3D3FD"/>
<path fill-rule="evenodd" clip-rule="evenodd" d="M17.418 14.8623H26.6229V18.2776H17.418V14.8623Z" fill="#86BAFF"/>
<path fill-rule="evenodd" clip-rule="evenodd" d="M2.03866 7.46191H42.0006C42.9475 7.46191 43.7151 8.22138 43.7151 9.15823V13.1656C43.7151 14.1024 42.9475 14.8619 42.0006 14.8619H2.03866C1.0918 14.8619 0.324219 14.1024 0.324219 13.1656V9.15823C0.324219 8.22138 1.0918 7.46191 2.03866 7.46191Z" fill="#2B70C9"/>
<path fill-rule="evenodd" clip-rule="evenodd" d="M17.418 7.46191H26.6229V14.8619H17.418V7.46191Z" fill="#B3D3FD"/>
</g>
<defs>
<clipPath id="clip0_188_5971">
<rect width="44" height="39" fill="white" transform="translate(0 0.898438)"/>
</clipPath>
</defs>
</svg>
