<svg width="48" height="49" viewBox="0 0 48 49" fill="none" xmlns="http://www.w3.org/2000/svg">
<path d="M42 36.3988H38V30.3988C38 29.8684 37.7893 29.3597 37.4142 28.9846C37.0391 28.6096 36.5304 28.3988 36 28.3988H26V22.9788L28.26 24.1588C28.5896 24.3313 28.9607 24.4083 29.3317 24.3814C29.7027 24.3545 30.0588 24.2247 30.3601 24.0066C30.6613 23.7884 30.8958 23.4906 31.0371 23.1465C31.1784 22.8024 31.221 22.4258 31.16 22.0588L30.36 17.3188L33.8 13.9388C34.0605 13.6844 34.2467 13.3637 34.3383 13.0112C34.43 12.6588 34.4236 12.288 34.32 11.9388C34.2041 11.5834 33.9908 11.2676 33.7045 11.0272C33.4181 10.7868 33.0702 10.6315 32.7 10.5788L28 9.83884L25.8 5.51885C25.6362 5.1807 25.3805 4.89553 25.0622 4.69599C24.7438 4.49646 24.3757 4.39062 24 4.39062C23.6243 4.39062 23.2562 4.49646 22.9378 4.69599C22.6195 4.89553 22.3638 5.1807 22.2 5.51885L20 9.83884L15.22 10.5388C14.8498 10.5915 14.5018 10.7468 14.2155 10.9872C13.9292 11.2276 13.7159 11.5434 13.6 11.8988C13.4964 12.248 13.49 12.6188 13.5817 12.9712C13.6733 13.3237 13.8595 13.6444 14.12 13.8988L17.64 17.3188L16.84 22.0588C16.779 22.4258 16.8216 22.8024 16.9629 23.1465C17.1042 23.4906 17.3387 23.7884 17.6399 24.0066C17.9412 24.2247 18.2973 24.3545 18.6683 24.3814C19.0393 24.4083 19.4104 24.3313 19.74 24.1588L22 22.9788V28.3988H12C11.4696 28.3988 10.9609 28.6096 10.5858 28.9846C10.2107 29.3597 10 29.8684 10 30.3988V36.3988H6C5.46957 36.3988 4.96086 36.6096 4.58579 36.9846C4.21071 37.3597 4 37.8684 4 38.3988V42.3988C4 42.9293 4.21071 43.438 4.58579 43.8131C4.96086 44.1881 5.46957 44.3988 6 44.3988C6.53043 44.3988 7.03914 44.1881 7.41421 43.8131C7.78929 43.438 8 42.9293 8 42.3988V40.3988H16V42.3988C16 42.9293 16.2107 43.438 16.5858 43.8131C16.9609 44.1881 17.4696 44.3988 18 44.3988C18.5304 44.3988 19.0391 44.1881 19.4142 43.8131C19.7893 43.438 20 42.9293 20 42.3988V38.3988C20 37.8684 19.7893 37.3597 19.4142 36.9846C19.0391 36.6096 18.5304 36.3988 18 36.3988H14V32.3988H34V36.3988H30C29.4696 36.3988 28.9609 36.6096 28.5858 36.9846C28.2107 37.3597 28 37.8684 28 38.3988V42.3988C28 42.9293 28.2107 43.438 28.5858 43.8131C28.9609 44.1881 29.4696 44.3988 30 44.3988C30.5304 44.3988 31.0391 44.1881 31.4142 43.8131C31.7893 43.438 32 42.9293 32 42.3988V40.3988H40V42.3988C40 42.9293 40.2107 43.438 40.5858 43.8131C40.9609 44.1881 41.4696 44.3988 42 44.3988C42.5304 44.3988 43.0391 44.1881 43.4142 43.8131C43.7893 43.438 44 42.9293 44 42.3988V38.3988C44 37.8684 43.7893 37.3597 43.4142 36.9846C43.0391 36.6096 42.5304 36.3988 42 36.3988ZM24 17.6588C23.6717 17.6605 23.3489 17.7429 23.06 17.8988L21.46 18.7388L21.76 16.9388C21.8125 16.6205 21.7871 16.2941 21.6861 15.9876C21.5851 15.6811 21.4115 15.4037 21.18 15.1788L19.88 13.8988L21.68 13.6388C22.002 13.5958 22.3087 13.475 22.5736 13.2868C22.8384 13.0986 23.0534 12.8488 23.2 12.5588L24 10.9188L24.8 12.5588C24.9466 12.8488 25.1616 13.0986 25.4264 13.2868C25.6913 13.475 25.998 13.5958 26.32 13.6388L28.12 13.8988L26.82 15.1788C26.5885 15.4037 26.4149 15.6811 26.3139 15.9876C26.2129 16.2941 26.1875 16.6205 26.24 16.9388L26.54 18.7388L24.94 17.8988C24.6511 17.7429 24.3283 17.6605 24 17.6588Z" fill="#FFC300"/>
</svg>
