<svg width="26" height="25" viewBox="0 0 26 25" fill="none" xmlns="http://www.w3.org/2000/svg">
<g clip-path="url(#clip0_188_6201)">
<path d="M3.15234 2.7207H22.8493V22.0755H3.15234V2.7207Z" fill="#AA572A"/>
<path d="M0.787879 0.398438H4.72727C4.93623 0.398438 5.13663 0.480004 5.28439 0.625194C5.43214 0.770383 5.51515 0.967302 5.51515 1.17263V24.3984H0.787879C0.57892 24.3984 0.37852 24.3169 0.230764 24.1717C0.0830084 24.0265 0 23.8296 0 23.6242V1.17263C0 0.967302 0.0830084 0.770383 0.230764 0.625194C0.37852 0.480004 0.57892 0.398438 0.787879 0.398438V0.398438ZM21.2727 0.398438H25.2121C25.4211 0.398438 25.6215 0.480004 25.7692 0.625194C25.917 0.770383 26 0.967302 26 1.17263V23.6242C26 23.8296 25.917 24.0265 25.7692 24.1717C25.6215 24.3169 25.4211 24.3984 25.2121 24.3984H20.4848V1.17263C20.4848 0.967302 20.5679 0.770383 20.7156 0.625194C20.8634 0.480004 21.0638 0.398438 21.2727 0.398438V0.398438Z" fill="#FFD300"/>
<path d="M3.15234 21.3018H22.8493V24.3986H3.15234V21.3018ZM3.15234 11.2373H22.8493V15.8825H3.15234V11.2373Z" fill="#FFD300"/>
<path d="M10.2437 8.91504H15.7589C16.1768 8.91504 16.5776 9.07817 16.8731 9.36855C17.1686 9.65893 17.3346 10.0528 17.3346 10.4634V16.657C17.3346 17.0676 17.1686 17.4615 16.8731 17.7519C16.5776 18.0422 16.1768 18.2054 15.7589 18.2054H10.2437C9.82581 18.2054 9.42501 18.0422 9.1295 17.7519C8.83399 17.4615 8.66797 17.0676 8.66797 16.657V10.4634C8.66797 10.0528 8.83399 9.65893 9.1295 9.36855C9.42501 9.07817 9.82581 8.91504 10.2437 8.91504Z" fill="#FFD300"/>
<path d="M11.8178 13.9316H14.1814L14.6841 15.6713C14.7173 15.7864 14.7229 15.9076 14.7005 16.0253C14.678 16.1429 14.6281 16.2539 14.5547 16.3494C14.4812 16.4449 14.3862 16.5224 14.2772 16.5757C14.1681 16.629 14.0479 16.6568 13.9261 16.6568H12.073C11.9512 16.6568 11.831 16.629 11.722 16.5757C11.6129 16.5224 11.5179 16.4449 11.4445 16.3494C11.371 16.2539 11.3211 16.1429 11.2986 16.0253C11.2762 15.9076 11.2818 15.7864 11.3151 15.6713L11.8178 13.9316Z" fill="#ED9F0E"/>
<path d="M13.0009 10.4629C13.5233 10.4629 14.0243 10.6668 14.3937 11.0298C14.7631 11.3928 14.9706 11.8851 14.9706 12.3984C14.9706 12.9117 14.7631 13.404 14.3937 13.767C14.0243 14.1299 13.5233 14.3339 13.0009 14.3339C12.4786 14.3339 11.9776 14.1299 11.6082 13.767C11.2388 13.404 11.0312 12.9117 11.0312 12.3984C11.0312 11.8851 11.2388 11.3928 11.6082 11.0298C11.9776 10.6668 12.4786 10.4629 13.0009 10.4629Z" fill="#ED9F0E"/>
</g>
<defs>
<clipPath id="clip0_188_6201">
<rect width="26" height="24" fill="white" transform="translate(0 0.398438)"/>
</clipPath>
</defs>
</svg>
