<svg width="18" height="27" viewBox="0 0 18 27" fill="none" xmlns="http://www.w3.org/2000/svg">
<path fill-rule="evenodd" clip-rule="evenodd" d="M4.77981 18.4741C4.98646 18.4422 5.20313 18.4532 5.41744 18.514C7.76203 19.1795 10.239 19.1795 12.5836 18.514C12.8099 18.4498 13.0388 18.4411 13.2557 18.4798V17.9425C16.9404 15.718 19.4501 10.6301 17.0659 5.83893C15.8909 3.47754 13.6322 1.76639 11.054 1.19601C5.19049 -0.0816472 0 4.34453 0 9.99132C0 13.2767 2.15605 16.3682 4.77981 17.9539V18.4741Z" fill="#CCCCCC"/>
<path d="M12.9932 24.4699C10.3809 25.2114 7.6202 25.2114 5.00784 24.4699M12.9932 20.957C10.3809 21.6985 7.62021 21.6985 5.00786 20.957" stroke="#CCCCCC" stroke-width="3" stroke-linecap="round" stroke-linejoin="round"/>
</svg>
