<svg width="74" height="42" viewBox="0 0 74 42" fill="none" xmlns="http://www.w3.org/2000/svg">
<rect x="0.5" y="26.5" width="73" height="15" rx="7.5" fill="white" fill-opacity="0.5" stroke="white"/>
<path d="M23.124 32.96C23.3107 32.9507 23.4553 33.0067 23.558 33.128C23.6607 33.24 23.712 33.38 23.712 33.548C23.712 33.716 23.6607 33.8607 23.558 33.982C23.4553 34.1033 23.3107 34.1593 23.124 34.15L21.752 34.08L22.508 35.214C22.5733 35.3167 22.606 35.4193 22.606 35.522C22.606 35.6807 22.536 35.8207 22.396 35.942C22.2653 36.054 22.116 36.11 21.948 36.11C21.7333 36.11 21.5747 36.012 21.472 35.816L20.856 34.598L20.24 35.816C20.128 36.0213 19.9693 36.124 19.764 36.124C19.596 36.124 19.442 36.068 19.302 35.956C19.1713 35.8347 19.106 35.6947 19.106 35.536C19.106 35.424 19.1387 35.3213 19.204 35.228L19.96 34.08L18.588 34.15C18.4013 34.1593 18.2567 34.108 18.154 33.996C18.0513 33.8747 18 33.73 18 33.562C18 33.394 18.0513 33.2493 18.154 33.128C18.2567 33.0067 18.4013 32.9507 18.588 32.96L19.96 33.03L19.204 31.896C19.1387 31.8027 19.106 31.7 19.106 31.588C19.106 31.4293 19.1713 31.294 19.302 31.182C19.442 31.07 19.596 31.014 19.764 31.014C19.9787 31.014 20.1373 31.112 20.24 31.308L20.856 32.526L21.472 31.308C21.5747 31.1027 21.738 31 21.962 31C22.1207 31 22.2653 31.0607 22.396 31.182C22.536 31.294 22.606 31.4293 22.606 31.588C22.606 31.7 22.5733 31.8027 22.508 31.896L21.752 33.03L23.124 32.96Z" fill="white"/>
<path d="M29.4541 32.96C29.6407 32.9507 29.7854 33.0067 29.8881 33.128C29.9907 33.24 30.0421 33.38 30.0421 33.548C30.0421 33.716 29.9907 33.8607 29.8881 33.982C29.7854 34.1033 29.6407 34.1593 29.4541 34.15L28.0821 34.08L28.8381 35.214C28.9034 35.3167 28.9361 35.4193 28.9361 35.522C28.9361 35.6807 28.8661 35.8207 28.7261 35.942C28.5954 36.054 28.4461 36.11 28.2781 36.11C28.0634 36.11 27.9047 36.012 27.8021 35.816L27.1861 34.598L26.5701 35.816C26.4581 36.0213 26.2994 36.124 26.0941 36.124C25.9261 36.124 25.7721 36.068 25.6321 35.956C25.5014 35.8347 25.4361 35.6947 25.4361 35.536C25.4361 35.424 25.4687 35.3213 25.5341 35.228L26.2901 34.08L24.9181 34.15C24.7314 34.1593 24.5867 34.108 24.4841 33.996C24.3814 33.8747 24.3301 33.73 24.3301 33.562C24.3301 33.394 24.3814 33.2493 24.4841 33.128C24.5867 33.0067 24.7314 32.9507 24.9181 32.96L26.2901 33.03L25.5341 31.896C25.4687 31.8027 25.4361 31.7 25.4361 31.588C25.4361 31.4293 25.5014 31.294 25.6321 31.182C25.7721 31.07 25.9261 31.014 26.0941 31.014C26.3087 31.014 26.4674 31.112 26.5701 31.308L27.1861 32.526L27.8021 31.308C27.9047 31.1027 28.0681 31 28.2921 31C28.4507 31 28.5954 31.0607 28.7261 31.182C28.8661 31.294 28.9361 31.4293 28.9361 31.588C28.9361 31.7 28.9034 31.8027 28.8381 31.896L28.0821 33.03L29.4541 32.96Z" fill="white"/>
<path d="M35.7842 32.96C35.9708 32.9507 36.1155 33.0067 36.2182 33.128C36.3208 33.24 36.3722 33.38 36.3722 33.548C36.3722 33.716 36.3208 33.8607 36.2182 33.982C36.1155 34.1033 35.9708 34.1593 35.7842 34.15L34.4122 34.08L35.1682 35.214C35.2335 35.3167 35.2662 35.4193 35.2662 35.522C35.2662 35.6807 35.1962 35.8207 35.0562 35.942C34.9255 36.054 34.7762 36.11 34.6082 36.11C34.3935 36.11 34.2348 36.012 34.1322 35.816L33.5162 34.598L32.9002 35.816C32.7882 36.0213 32.6295 36.124 32.4242 36.124C32.2562 36.124 32.1022 36.068 31.9622 35.956C31.8315 35.8347 31.7662 35.6947 31.7662 35.536C31.7662 35.424 31.7988 35.3213 31.8642 35.228L32.6202 34.08L31.2482 34.15C31.0615 34.1593 30.9168 34.108 30.8142 33.996C30.7115 33.8747 30.6602 33.73 30.6602 33.562C30.6602 33.394 30.7115 33.2493 30.8142 33.128C30.9168 33.0067 31.0615 32.9507 31.2482 32.96L32.6202 33.03L31.8642 31.896C31.7988 31.8027 31.7662 31.7 31.7662 31.588C31.7662 31.4293 31.8315 31.294 31.9622 31.182C32.1022 31.07 32.2562 31.014 32.4242 31.014C32.6388 31.014 32.7975 31.112 32.9002 31.308L33.5162 32.526L34.1322 31.308C34.2348 31.1027 34.3982 31 34.6222 31C34.7808 31 34.9255 31.0607 35.0562 31.182C35.1962 31.294 35.2662 31.4293 35.2662 31.588C35.2662 31.7 35.2335 31.8027 35.1682 31.896L34.4122 33.03L35.7842 32.96Z" fill="white"/>
<path d="M42.1142 32.96C42.3009 32.9507 42.4456 33.0067 42.5482 33.128C42.6509 33.24 42.7022 33.38 42.7022 33.548C42.7022 33.716 42.6509 33.8607 42.5482 33.982C42.4456 34.1033 42.3009 34.1593 42.1142 34.15L40.7422 34.08L41.4982 35.214C41.5636 35.3167 41.5962 35.4193 41.5962 35.522C41.5962 35.6807 41.5262 35.8207 41.3862 35.942C41.2556 36.054 41.1062 36.11 40.9382 36.11C40.7236 36.11 40.5649 36.012 40.4622 35.816L39.8462 34.598L39.2302 35.816C39.1182 36.0213 38.9596 36.124 38.7542 36.124C38.5862 36.124 38.4322 36.068 38.2922 35.956C38.1616 35.8347 38.0962 35.6947 38.0962 35.536C38.0962 35.424 38.1289 35.3213 38.1942 35.228L38.9502 34.08L37.5782 34.15C37.3916 34.1593 37.2469 34.108 37.1442 33.996C37.0416 33.8747 36.9902 33.73 36.9902 33.562C36.9902 33.394 37.0416 33.2493 37.1442 33.128C37.2469 33.0067 37.3916 32.9507 37.5782 32.96L38.9502 33.03L38.1942 31.896C38.1289 31.8027 38.0962 31.7 38.0962 31.588C38.0962 31.4293 38.1616 31.294 38.2922 31.182C38.4322 31.07 38.5862 31.014 38.7542 31.014C38.9689 31.014 39.1276 31.112 39.2302 31.308L39.8462 32.526L40.4622 31.308C40.5649 31.1027 40.7282 31 40.9522 31C41.1109 31 41.2556 31.0607 41.3862 31.182C41.5262 31.294 41.5962 31.4293 41.5962 31.588C41.5962 31.7 41.5636 31.8027 41.4982 31.896L40.7422 33.03L42.1142 32.96Z" fill="white"/>
<path d="M48.4443 32.96C48.631 32.9507 48.7756 33.0067 48.8783 33.128C48.981 33.24 49.0323 33.38 49.0323 33.548C49.0323 33.716 48.981 33.8607 48.8783 33.982C48.7756 34.1033 48.631 34.1593 48.4443 34.15L47.0723 34.08L47.8283 35.214C47.8936 35.3167 47.9263 35.4193 47.9263 35.522C47.9263 35.6807 47.8563 35.8207 47.7163 35.942C47.5856 36.054 47.4363 36.11 47.2683 36.11C47.0536 36.11 46.895 36.012 46.7923 35.816L46.1763 34.598L45.5603 35.816C45.4483 36.0213 45.2896 36.124 45.0843 36.124C44.9163 36.124 44.7623 36.068 44.6223 35.956C44.4916 35.8347 44.4263 35.6947 44.4263 35.536C44.4263 35.424 44.459 35.3213 44.5243 35.228L45.2803 34.08L43.9083 34.15C43.7216 34.1593 43.577 34.108 43.4743 33.996C43.3716 33.8747 43.3203 33.73 43.3203 33.562C43.3203 33.394 43.3716 33.2493 43.4743 33.128C43.577 33.0067 43.7216 32.9507 43.9083 32.96L45.2803 33.03L44.5243 31.896C44.459 31.8027 44.4263 31.7 44.4263 31.588C44.4263 31.4293 44.4916 31.294 44.6223 31.182C44.7623 31.07 44.9163 31.014 45.0843 31.014C45.299 31.014 45.4576 31.112 45.5603 31.308L46.1763 32.526L46.7923 31.308C46.895 31.1027 47.0583 31 47.2823 31C47.441 31 47.5856 31.0607 47.7163 31.182C47.8563 31.294 47.9263 31.4293 47.9263 31.588C47.9263 31.7 47.8936 31.8027 47.8283 31.896L47.0723 33.03L48.4443 32.96Z" fill="white"/>
<path d="M54.7744 32.96C54.9611 32.9507 55.1057 33.0067 55.2084 33.128C55.3111 33.24 55.3624 33.38 55.3624 33.548C55.3624 33.716 55.3111 33.8607 55.2084 33.982C55.1057 34.1033 54.9611 34.1593 54.7744 34.15L53.4024 34.08L54.1584 35.214C54.2237 35.3167 54.2564 35.4193 54.2564 35.522C54.2564 35.6807 54.1864 35.8207 54.0464 35.942C53.9157 36.054 53.7664 36.11 53.5984 36.11C53.3837 36.11 53.2251 36.012 53.1224 35.816L52.5064 34.598L51.8904 35.816C51.7784 36.0213 51.6197 36.124 51.4144 36.124C51.2464 36.124 51.0924 36.068 50.9524 35.956C50.8217 35.8347 50.7564 35.6947 50.7564 35.536C50.7564 35.424 50.7891 35.3213 50.8544 35.228L51.6104 34.08L50.2384 34.15C50.0517 34.1593 49.9071 34.108 49.8044 33.996C49.7017 33.8747 49.6504 33.73 49.6504 33.562C49.6504 33.394 49.7017 33.2493 49.8044 33.128C49.9071 33.0067 50.0517 32.9507 50.2384 32.96L51.6104 33.03L50.8544 31.896C50.7891 31.8027 50.7564 31.7 50.7564 31.588C50.7564 31.4293 50.8217 31.294 50.9524 31.182C51.0924 31.07 51.2464 31.014 51.4144 31.014C51.6291 31.014 51.7877 31.112 51.8904 31.308L52.5064 32.526L53.1224 31.308C53.2251 31.1027 53.3884 31 53.6124 31C53.7711 31 53.9157 31.0607 54.0464 31.182C54.1864 31.294 54.2564 31.4293 54.2564 31.588C54.2564 31.7 54.2237 31.8027 54.1584 31.896L53.4024 33.03L54.7744 32.96Z" fill="white"/>
<path d="M32 8.33366V6.66699C32 3.90866 32.8333 1.66699 37 1.66699C40.75 1.66699 42 3.33366 42 5.83366" stroke="#CCCCCC" stroke-width="2" stroke-linecap="round" stroke-linejoin="round"/>
<path fill-rule="evenodd" clip-rule="evenodd" d="M32.8333 18.334H41.1667C44.5 18.334 45.3333 17.5007 45.3333 14.1673V12.5007C45.3333 9.16732 44.5 8.33398 41.1667 8.33398H32.8333C29.5 8.33398 28.6667 9.16732 28.6667 12.5007V14.1673C28.6667 17.5007 29.5 18.334 32.8333 18.334ZM35.9167 13.3338C35.9167 12.7355 36.4017 12.2505 37 12.2505C37.5983 12.2505 38.0833 12.7355 38.0833 13.3338C38.0833 13.9321 37.5983 14.4172 37 14.4172C36.4017 14.4172 35.9167 13.9321 35.9167 13.3338ZM37 10.2505C35.2971 10.2505 33.9167 11.6309 33.9167 13.3338C33.9167 15.0367 35.2971 16.4172 37 16.4172C38.7029 16.4172 40.0833 15.0367 40.0833 13.3338C40.0833 11.6309 38.7029 10.2505 37 10.2505Z" fill="url(#paint0_linear_562_30)"/>
<defs>
<linearGradient id="paint0_linear_562_30" x1="37" y1="8.33398" x2="37" y2="18.334" gradientUnits="userSpaceOnUse">
<stop stop-color="#FFC12C"/>
<stop offset="1" stop-color="#FEA80C"/>
</linearGradient>
</defs>
</svg>
