<svg width="30" height="28" viewBox="0 0 30 28" fill="none" xmlns="http://www.w3.org/2000/svg">
<path fill-rule="evenodd" clip-rule="evenodd" d="M3.76518 15.7061V18.7115C3.35213 19.4265 3.53709 20.4053 4.31557 20.8838L14.0409 26.8615C14.5622 27.1819 15.2203 27.178 15.7378 26.8515L25.6994 20.566C26.4656 20.0825 26.6427 19.1141 26.2348 18.4055V15.7061L16.2 21.9565C15.4654 22.4141 14.5346 22.4141 13.8 21.9565L3.76518 15.7061Z" fill="#CCCCCC"/>
<path d="M13.8 1.24454C14.5346 0.786976 15.4654 0.786977 16.2 1.24454L28.9303 9.1739C30.3566 10.0623 30.3566 12.1387 28.9303 13.0271L16.2 20.9565C15.4654 21.414 14.5346 21.414 13.8 20.9565L1.06974 13.0271C-0.356582 12.1387 -0.356579 10.0623 1.06974 9.17389L13.8 1.24454Z" fill="#CCCCCC"/>
</svg>
