<svg width="90" height="28" viewBox="0 0 90 28" fill="none" xmlns="http://www.w3.org/2000/svg">
<rect width="90" height="28" rx="8" fill="url(#paint0_linear_562_4)"/>
<path d="M20.688 19.154C20.296 19.154 19.8947 19.1213 19.484 19.056C19.0827 19 18.6953 18.916 18.322 18.804C17.958 18.692 17.6313 18.552 17.342 18.384C17.1367 18.272 16.992 18.1273 16.908 17.95C16.824 17.7633 16.7913 17.5767 16.81 17.39C16.838 17.2033 16.908 17.04 17.02 16.9C17.1413 16.7507 17.2907 16.6573 17.468 16.62C17.6547 16.5733 17.86 16.606 18.084 16.718C18.4667 16.9327 18.882 17.0913 19.33 17.194C19.7873 17.2967 20.24 17.348 20.688 17.348C21.3693 17.348 21.8547 17.2453 22.144 17.04C22.4333 16.8253 22.578 16.5593 22.578 16.242C22.578 15.9713 22.4753 15.7567 22.27 15.598C22.0647 15.4393 21.7053 15.304 21.192 15.192L19.61 14.856C18.714 14.6693 18.0467 14.352 17.608 13.904C17.1787 13.4467 16.964 12.8493 16.964 12.112C16.964 11.6453 17.062 11.2207 17.258 10.838C17.454 10.4553 17.7293 10.124 18.084 9.844C18.4387 9.564 18.8587 9.34933 19.344 9.2C19.8387 9.05067 20.38 8.976 20.968 8.976C21.4907 8.976 22.004 9.04133 22.508 9.172C23.012 9.29333 23.4553 9.47533 23.838 9.718C24.0247 9.83 24.1507 9.97467 24.216 10.152C24.2907 10.32 24.314 10.4927 24.286 10.67C24.2673 10.838 24.1973 10.9873 24.076 11.118C23.964 11.2487 23.8193 11.3327 23.642 11.37C23.4647 11.4073 23.25 11.3653 22.998 11.244C22.69 11.0853 22.3633 10.9687 22.018 10.894C21.6727 10.8193 21.318 10.782 20.954 10.782C20.562 10.782 20.226 10.8333 19.946 10.936C19.6753 11.0387 19.4653 11.1833 19.316 11.37C19.176 11.5567 19.106 11.7713 19.106 12.014C19.106 12.2847 19.204 12.504 19.4 12.672C19.596 12.84 19.9367 12.9753 20.422 13.078L22.004 13.414C22.9187 13.61 23.6 13.9273 24.048 14.366C24.496 14.7953 24.72 15.3647 24.72 16.074C24.72 16.5407 24.6267 16.9653 24.44 17.348C24.2533 17.7213 23.9827 18.0433 23.628 18.314C23.2733 18.5847 22.8487 18.7947 22.354 18.944C21.8593 19.084 21.304 19.154 20.688 19.154ZM27.2208 19.126C26.8661 19.126 26.5954 19.028 26.4088 18.832C26.2221 18.636 26.1288 18.3607 26.1288 18.006V10.124C26.1288 9.76933 26.2221 9.494 26.4088 9.298C26.5954 9.102 26.8661 9.004 27.2208 9.004C27.5661 9.004 27.8321 9.102 28.0188 9.298C28.2054 9.494 28.2988 9.76933 28.2988 10.124V18.006C28.2988 18.3607 28.2054 18.636 28.0188 18.832C27.8414 19.028 27.5754 19.126 27.2208 19.126ZM35.171 19.154C34.0603 19.154 33.1177 18.944 32.343 18.524C31.5777 18.104 30.9943 17.516 30.593 16.76C30.1917 16.004 29.991 15.1173 29.991 14.1C29.991 13.316 30.1077 12.6113 30.341 11.986C30.5837 11.3513 30.929 10.8147 31.377 10.376C31.8343 9.928 32.385 9.58267 33.029 9.34C33.6823 9.09733 34.4197 8.976 35.241 8.976C35.745 8.976 36.249 9.032 36.753 9.144C37.257 9.256 37.7423 9.44267 38.209 9.704C38.405 9.816 38.5357 9.96067 38.601 10.138C38.6757 10.306 38.6943 10.488 38.657 10.684C38.629 10.8707 38.5543 11.0387 38.433 11.188C38.321 11.328 38.1717 11.4213 37.985 11.468C37.8077 11.5053 37.6023 11.468 37.369 11.356C37.061 11.188 36.7343 11.0667 36.389 10.992C36.0437 10.908 35.6657 10.866 35.255 10.866C34.5923 10.866 34.037 10.992 33.589 11.244C33.141 11.4867 32.805 11.8507 32.581 12.336C32.3663 12.812 32.259 13.4 32.259 14.1C32.259 15.1547 32.511 15.9527 33.015 16.494C33.5283 17.0353 34.2843 17.306 35.283 17.306C35.619 17.306 35.9643 17.2733 36.319 17.208C36.6737 17.1427 37.0237 17.0493 37.369 16.928L36.963 17.81V15.122H35.703C35.423 15.122 35.2083 15.052 35.059 14.912C34.9097 14.772 34.835 14.5807 34.835 14.338C34.835 14.086 34.9097 13.8947 35.059 13.764C35.2083 13.624 35.423 13.554 35.703 13.554H37.901C38.181 13.554 38.391 13.6287 38.531 13.778C38.6803 13.9273 38.755 14.142 38.755 14.422V17.67C38.755 17.9127 38.7083 18.118 38.615 18.286C38.5217 18.454 38.363 18.5753 38.139 18.65C37.719 18.7993 37.2477 18.9207 36.725 19.014C36.2023 19.1073 35.6843 19.154 35.171 19.154ZM41.6836 19.126C41.357 19.126 41.105 19.0373 40.9276 18.86C40.7596 18.6733 40.6756 18.412 40.6756 18.076V10.096C40.6756 9.74133 40.7596 9.47067 40.9276 9.284C41.105 9.09733 41.3383 9.004 41.6276 9.004C41.8796 9.004 42.071 9.05533 42.2016 9.158C42.3416 9.25133 42.5003 9.41 42.6776 9.634L47.5916 15.892H47.2136V10.04C47.2136 9.71333 47.2976 9.46133 47.4656 9.284C47.643 9.09733 47.895 9.004 48.2216 9.004C48.5483 9.004 48.7956 9.09733 48.9636 9.284C49.141 9.46133 49.2296 9.71333 49.2296 10.04V18.118C49.2296 18.426 49.1503 18.6733 48.9916 18.86C48.833 19.0373 48.6183 19.126 48.3476 19.126C48.0863 19.126 47.8763 19.0747 47.7176 18.972C47.5683 18.8693 47.405 18.706 47.2276 18.482L42.3276 12.224H42.6916V18.076C42.6916 18.412 42.6076 18.6733 42.4396 18.86C42.2716 19.0373 42.0196 19.126 41.6836 19.126ZM59.3548 19.154C58.6548 19.154 58.0341 19.0653 57.4928 18.888C56.9608 18.7013 56.5128 18.4307 56.1488 18.076C55.7848 17.7213 55.5095 17.278 55.3228 16.746C55.1455 16.2047 55.0568 15.5793 55.0568 14.87V10.11C55.0568 9.746 55.1501 9.47067 55.3368 9.284C55.5235 9.09733 55.7941 9.004 56.1488 9.004C56.4941 9.004 56.7601 9.09733 56.9468 9.284C57.1335 9.47067 57.2268 9.746 57.2268 10.11V14.884C57.2268 15.6867 57.4088 16.2933 57.7728 16.704C58.1368 17.1053 58.6641 17.306 59.3548 17.306C60.0455 17.306 60.5681 17.1053 60.9228 16.704C61.2868 16.2933 61.4688 15.6867 61.4688 14.884V10.11C61.4688 9.746 61.5621 9.47067 61.7488 9.284C61.9355 9.09733 62.2015 9.004 62.5468 9.004C62.8921 9.004 63.1535 9.09733 63.3308 9.284C63.5175 9.47067 63.6108 9.746 63.6108 10.11V14.87C63.6108 15.8127 63.4475 16.606 63.1208 17.25C62.8035 17.8847 62.3275 18.3607 61.6928 18.678C61.0675 18.9953 60.2881 19.154 59.3548 19.154ZM66.6231 19.126C66.2684 19.126 65.9978 19.028 65.8111 18.832C65.6244 18.636 65.5311 18.3607 65.5311 18.006V10.236C65.5311 9.872 65.6244 9.59667 65.8111 9.41C66.0071 9.22333 66.2824 9.13 66.6371 9.13H70.0391C71.1404 9.13 71.9898 9.41 72.5871 9.97C73.1844 10.5207 73.4831 11.2907 73.4831 12.28C73.4831 13.2693 73.1844 14.044 72.5871 14.604C71.9898 15.164 71.1404 15.444 70.0391 15.444H67.7011V18.006C67.7011 18.3607 67.6078 18.636 67.4211 18.832C67.2438 19.028 66.9778 19.126 66.6231 19.126ZM67.7011 13.764H69.6751C70.2351 13.764 70.6598 13.638 70.9491 13.386C71.2478 13.134 71.3971 12.7653 71.3971 12.28C71.3971 11.7947 71.2478 11.4307 70.9491 11.188C70.6598 10.9453 70.2351 10.824 69.6751 10.824H67.7011V13.764Z" fill="white"/>
<defs>
<linearGradient id="paint0_linear_562_4" x1="45" y1="0" x2="45" y2="28" gradientUnits="userSpaceOnUse">
<stop stop-color="#00C7B1"/>
<stop offset="1" stop-color="#20B5FF"/>
</linearGradient>
</defs>
</svg>
