<svg width="31" height="30" viewBox="0 0 31 30" fill="none" xmlns="http://www.w3.org/2000/svg">
<path d="M19.1226 3.60418C19.502 2.91064 20.498 2.91064 20.8774 3.60418L23.0414 7.56105C23.1332 7.72884 23.2712 7.86679 23.439 7.95856L27.3958 10.1226C28.0894 10.502 28.0894 11.498 27.3958 11.8774L23.439 14.0414C23.2712 14.1332 23.1332 14.2712 23.0414 14.439L20.8774 18.3958C20.498 19.0894 19.502 19.0894 19.1226 18.3958L16.9586 14.439C16.8668 14.2712 16.7288 14.1332 16.561 14.0414L12.6042 11.8774C11.9106 11.498 11.9106 10.502 12.6042 10.1226L16.561 7.95856C16.7288 7.86679 16.8668 7.72884 16.9586 7.56105L19.1226 3.60418Z" fill="#CCCCCC"/>
<path d="M8.12264 15.6042C8.50196 14.9106 9.49804 14.9106 9.87736 15.6042L11.3343 18.2682C11.4261 18.4359 11.5641 18.5739 11.7318 18.6657L14.3958 20.1226C15.0894 20.502 15.0894 21.498 14.3958 21.8774L11.7318 23.3343C11.5641 23.4261 11.4261 23.5641 11.3343 23.7318L9.87736 26.3958C9.49804 27.0894 8.50196 27.0894 8.12264 26.3958L6.66567 23.7318C6.5739 23.5641 6.43595 23.4261 6.26816 23.3343L3.60418 21.8774C2.91064 21.498 2.91064 20.502 3.60418 20.1226L6.26815 18.6657C6.43594 18.5739 6.5739 18.4359 6.66567 18.2682L8.12264 15.6042Z" fill="#CCCCCC"/>
</svg>
