<svg width="25" height="26" viewBox="0 0 25 26" fill="none" xmlns="http://www.w3.org/2000/svg">
<path d="M23.5067 11.352C24.6624 12.1467 24.6624 13.8533 23.5067 14.648L19.052 17.7112C18.6733 17.9716 18.3959 18.3544 18.2663 18.7954L16.7422 23.9828C16.3455 25.3332 14.7152 25.8622 13.6012 25.0022L9.33663 21.71C8.97156 21.4281 8.52031 21.2811 8.05929 21.2939L2.67414 21.4425C1.27025 21.4812 0.264709 20.0989 0.733863 18.7751L2.54386 13.6681C2.69705 13.2359 2.69705 12.7641 2.54386 12.3319L0.733863 7.22488C0.264709 5.90113 1.27025 4.51879 2.67414 4.55753L8.05929 4.70614C8.52031 4.71886 8.97156 4.57186 9.33663 4.29003L13.6012 0.997806C14.7152 0.137769 16.3455 0.666846 16.7422 2.01717L18.2663 7.20461C18.3959 7.64555 18.6733 8.02842 19.052 8.28882L23.5067 11.352Z" fill="#CCCCCC"/>
</svg>
