<svg width="24" height="24" viewBox="0 0 24 24" fill="none" xmlns="http://www.w3.org/2000/svg">
<path d="M6.86668 5.14286C6.86668 2.30254 9.16495 0 12 0C14.8351 0 17.1333 2.30254 17.1333 5.14286C17.1333 7.98318 14.8351 10.2857 12 10.2857C9.16495 10.2857 6.86668 7.98318 6.86668 5.14286Z" fill="#CCCCCC"/>
<path d="M23.3298 20.6542C24.0334 22.4117 22.4472 24 20.5572 24C18.3831 24 15.3524 24 12 24C8.64762 24 5.61691 24 3.4428 24C1.55276 24 -0.033431 22.4117 0.670198 20.6542C2.28696 16.6161 6.74885 13.7143 12 13.7143C17.2511 13.7143 21.713 16.6161 23.3298 20.6542Z" fill="#CCCCCC"/>
</svg>
