<svg width="26" height="26" viewBox="0 0 26 26" fill="none" xmlns="http://www.w3.org/2000/svg">
<path d="M12.3047 24.9994C9.46435 24.9994 7.16182 19.627 7.16182 12.9997C7.16182 6.37245 9.46435 1 12.3047 1M13.6482 24.9994C16.4885 24.9994 18.7911 19.627 18.7911 12.9997C18.7911 6.37245 16.4885 1 13.6482 1M25 13.6953C25 16.5355 19.6274 18.838 13 18.838C6.37264 18.838 1.00008 16.5355 1.00008 13.6953M25 12.3517C25 9.51147 19.6274 7.20899 13 7.20899C6.37264 7.20899 1.00008 9.51147 1.00008 12.3517M24.9999 13.0003C24.9999 19.6275 19.6274 25 13 25C6.37257 25 1 19.6275 1 13.0003C1 6.37303 6.37257 1.00058 13 1.00058C19.6274 1.00058 24.9999 6.37303 24.9999 13.0003Z" stroke="#CCCCCC" stroke-width="2" stroke-linecap="round"/>
</svg>
