<svg width="24" height="25" viewBox="0 0 24 25" fill="none" xmlns="http://www.w3.org/2000/svg">
<path d="M21 12.8984C20.7348 12.8984 20.4804 13.0037 20.2929 13.1913C20.1054 13.3788 20 13.6332 20 13.8984V19.8984C20 20.1636 19.8946 20.4179 19.7071 20.6055C19.5196 20.793 19.2652 20.8984 19 20.8984H5C4.73478 20.8984 4.48043 20.793 4.29289 20.6055C4.10536 20.4179 4 20.1636 4 19.8984V5.89838C4 5.63316 4.10536 5.37881 4.29289 5.19127C4.48043 5.00373 4.73478 4.89838 5 4.89838H11C11.2652 4.89838 11.5196 4.79302 11.7071 4.60548C11.8946 4.41795 12 4.16359 12 3.89838C12 3.63316 11.8946 3.37881 11.7071 3.19127C11.5196 3.00373 11.2652 2.89838 11 2.89838H5C4.20435 2.89838 3.44129 3.21445 2.87868 3.77706C2.31607 4.33967 2 5.10273 2 5.89838V19.8984C2 20.694 2.31607 21.4571 2.87868 22.0197C3.44129 22.5823 4.20435 22.8984 5 22.8984H19C19.7956 22.8984 20.5587 22.5823 21.1213 22.0197C21.6839 21.4571 22 20.694 22 19.8984V13.8984C22 13.6332 21.8946 13.3788 21.7071 13.1913C21.5196 13.0037 21.2652 12.8984 21 12.8984ZM6 13.6584V17.8984C6 18.1636 6.10536 18.4179 6.29289 18.6055C6.48043 18.793 6.73478 18.8984 7 18.8984H11.24C11.3716 18.8991 11.5021 18.8739 11.6239 18.8241C11.7457 18.7744 11.8566 18.7011 11.95 18.6084L18.87 11.6784L21.71 8.89838C21.8037 8.80541 21.8781 8.69481 21.9289 8.57295C21.9797 8.45109 22.0058 8.32039 22.0058 8.18838C22.0058 8.05636 21.9797 7.92566 21.9289 7.8038C21.8781 7.68194 21.8037 7.57134 21.71 7.47838L17.47 3.18838C17.377 3.09465 17.2664 3.02025 17.1446 2.96949C17.0227 2.91872 16.892 2.89258 16.76 2.89258C16.628 2.89258 16.4973 2.91872 16.3754 2.96949C16.2536 3.02025 16.143 3.09465 16.05 3.18838L13.23 6.01838L6.29 12.9484C6.19732 13.0418 6.12399 13.1526 6.07423 13.2745C6.02446 13.3963 5.99924 13.5268 6 13.6584ZM16.76 5.30838L19.59 8.13838L18.17 9.55838L15.34 6.72838L16.76 5.30838ZM8 14.0684L13.93 8.13838L16.76 10.9684L10.83 16.8984H8V14.0684Z" fill="#B531D4"/>
</svg>
