<svg width="64" height="65" viewBox="0 0 64 65" fill="none" xmlns="http://www.w3.org/2000/svg">
<path d="M0 32C0 14.3269 14.3269 0 32 0C49.6731 0 64 14.3269 64 32C64 49.6731 49.6731 64 32 64C14.3269 64 0 49.6731 0 32Z" fill="#EA2B2B"/>
<g clip-path="url(#clip0_914_7343)">
<path d="M39.5523 20.8953L31.9993 28.1582C29.4818 25.7383 26.9634 23.316 24.4455 20.8953C21.5327 18.0945 17.0176 22.4375 19.928 25.2391C22.4463 27.6582 24.9655 30.0809 27.481 32.5016C24.9643 34.9234 22.4467 37.3442 19.928 39.7641C17.0176 42.5641 21.5331 46.9059 24.4455 44.1078C26.963 41.6863 29.4813 39.2645 31.9989 36.8445L39.5519 44.1078C42.4647 46.9078 46.981 42.5645 44.0694 39.7641C41.551 37.3426 39.0335 34.9219 36.5143 32.5008C39.0331 30.0793 41.5506 27.6578 44.0694 25.2367C46.9814 22.4375 42.4651 18.0945 39.5519 20.8969" fill="white"/>
</g>
<defs>
<clipPath id="clip0_914_7343">
<rect width="26" height="25" fill="white" transform="translate(19 20)"/>
</clipPath>
</defs>
</svg>
